<svg width="232" height="76" viewBox="0 0 232 76" fill="none" xmlns="http://www.w3.org/2000/svg">
<mask id="path-1-inside-1_2002_42" fill="white">
<path d="M136 0C143.491 5.97923e-07 150.476 2.16871 156.361 5.91113H199.911C217.633 5.91114 232 20.2778 232 38C232 55.7222 217.633 70.0889 199.911 70.0889H156.361C150.476 73.8313 143.491 76 136 76H96C88.5087 76 81.5243 73.8313 75.6387 70.0889H32.0889C14.3667 70.0889 0 55.7222 0 38C5.15439e-07 20.2778 14.3667 5.91114 32.0889 5.91113H75.6387C81.5243 2.16871 88.5087 0 96 0H136Z"/>
</mask>
<path d="M136 0C143.491 5.97923e-07 150.476 2.16871 156.361 5.91113H199.911C217.633 5.91114 232 20.2778 232 38C232 55.7222 217.633 70.0889 199.911 70.0889H156.361C150.476 73.8313 143.491 76 136 76H96C88.5087 76 81.5243 73.8313 75.6387 70.0889H32.0889C14.3667 70.0889 0 55.7222 0 38C5.15439e-07 20.2778 14.3667 5.91114 32.0889 5.91113H75.6387C81.5243 2.16871 88.5087 0 96 0H136Z" fill="#FFE65A"/>
<path d="M136 0V-3V0ZM156.361 5.91113L154.752 8.4427L155.488 8.91113H156.361V5.91113ZM199.911 5.91113V2.91113V5.91113ZM232 38H235H232ZM199.911 70.0889V73.0889V70.0889ZM156.361 70.0889V67.0889H155.488L154.752 67.5573L156.361 70.0889ZM96 76V79V76ZM75.6387 70.0889L77.2484 67.5573L76.5117 67.0889H75.6387V70.0889ZM32.0889 70.0889V73.0889V70.0889ZM0 38H-3H0ZM32.0889 5.91113V2.91113V5.91113ZM75.6387 5.91113V8.91113H76.5117L77.2484 8.4427L75.6387 5.91113ZM136 0V3C142.904 3 149.333 4.99696 154.752 8.4427L156.361 5.91113L157.971 3.37957C151.619 -0.659544 144.078 -3 136 -3V0ZM156.361 5.91113V8.91113H199.911V5.91113V2.91113H156.361V5.91113ZM199.911 5.91113V8.91113C215.976 8.91114 229 21.9347 229 38H232H235C235 18.621 219.29 2.91114 199.911 2.91113V5.91113ZM232 38H229C229 54.0653 215.976 67.0889 199.911 67.0889V70.0889V73.0889C219.29 73.0889 235 57.3791 235 38H232ZM199.911 70.0889V67.0889H156.361V70.0889V73.0889H199.911V70.0889ZM156.361 70.0889L154.752 67.5573C149.333 71.003 142.904 73 136 73V76V79C144.078 79 151.619 76.6595 157.971 72.6204L156.361 70.0889ZM136 76V73H96V76V79H136V76ZM96 76V73C89.0959 73 82.6674 71.003 77.2484 67.5573L75.6387 70.0889L74.029 72.6204C80.3812 76.6595 87.9215 79 96 79V76ZM75.6387 70.0889V67.0889H32.0889V70.0889V73.0889H75.6387V70.0889ZM32.0889 70.0889V67.0889C16.0235 67.0889 3 54.0653 3 38H0H-3C-3 57.3791 12.7098 73.0889 32.0889 73.0889V70.0889ZM0 38H3C3 21.9347 16.0235 8.91114 32.0889 8.91113V5.91113V2.91113C12.7098 2.91114 -3 18.621 -3 38H0ZM32.0889 5.91113V8.91113H75.6387V5.91113V2.91113H32.0889V5.91113ZM75.6387 5.91113L77.2484 8.4427C82.6674 4.99696 89.0959 3 96 3V0V-3C87.9215 -3 80.3812 -0.659543 74.029 3.37957L75.6387 5.91113ZM96 0V3H136V0V-3H96V0Z" fill="#341713" mask="url(#path-1-inside-1_2002_42)"/>
</svg>
