<svg width="36" height="36" viewBox="0 0 36 36" fill="none" xmlns="http://www.w3.org/2000/svg">
<g clip-path="url(#clip0_2007_6551)">
<path d="M31.0714 14.7958C31.0714 25.153 17.755 34.0305 17.755 34.0305C17.755 34.0305 4.43872 25.153 4.43872 14.7958C4.43872 11.2641 5.84169 7.87705 8.33898 5.37975C10.8363 2.88246 14.2233 1.47949 17.755 1.47949C21.2868 1.47949 24.6738 2.88246 27.1711 5.37975C29.6684 7.87705 31.0714 11.2641 31.0714 14.7958Z" stroke="#341713" stroke-width="2.95918" stroke-linecap="round" stroke-linejoin="round"/>
<path d="M17.7552 19.2345C20.2066 19.2345 22.194 17.2472 22.194 14.7957C22.194 12.3442 20.2066 10.3569 17.7552 10.3569C15.3037 10.3569 13.3164 12.3442 13.3164 14.7957C13.3164 17.2472 15.3037 19.2345 17.7552 19.2345Z" stroke="#341713" stroke-width="2.95918" stroke-linecap="round" stroke-linejoin="round"/>
</g>
<defs>
<clipPath id="clip0_2007_6551">
<rect width="35.5102" height="35.5102" fill="white"/>
</clipPath>
</defs>
</svg>
