<svg width="34" height="34" viewBox="0 0 34 34" fill="none" xmlns="http://www.w3.org/2000/svg">
<path d="M20.6226 7.39786C22.0678 7.67982 23.396 8.38661 24.4371 9.42776C25.4783 10.4689 26.1851 11.7971 26.467 13.2422M20.6226 1.47949C23.6251 1.81305 26.425 3.15761 28.5625 5.29241C30.7 7.42722 32.048 10.2254 32.3854 13.2275M30.9058 25.0346V29.4734C30.9075 29.8854 30.8231 30.2933 30.658 30.6709C30.4929 31.0484 30.2508 31.3874 29.9471 31.6659C29.6435 31.9445 29.285 32.1566 28.8947 32.2886C28.5043 32.4206 28.0907 32.4696 27.6803 32.4326C23.1273 31.9378 18.7539 30.3821 14.9114 27.8902C11.3365 25.6185 8.30552 22.5876 6.03385 19.0127C3.53331 15.1527 1.97717 10.758 1.4915 6.18459C1.45453 5.77544 1.50315 5.36307 1.63428 4.97373C1.76541 4.5844 1.97617 4.22663 2.25315 3.92322C2.53012 3.6198 2.86723 3.37738 3.24303 3.21139C3.61882 3.0454 4.02507 2.95947 4.43589 2.95908H8.87467C9.59272 2.95202 10.2888 3.20629 10.8333 3.67452C11.3777 4.14274 11.7334 4.79296 11.8338 5.50398C12.0212 6.92449 12.3686 8.31924 12.8696 9.66164C13.0686 10.1912 13.1117 10.7668 12.9937 11.3201C12.8757 11.8734 12.6016 12.3813 12.2037 12.7836L10.3247 14.6627C12.4309 18.3669 15.498 21.4339 19.2022 23.5402L21.0813 21.6611C21.4836 21.2633 21.9915 20.9892 22.5448 20.8712C23.0981 20.7532 23.6737 20.7962 24.2032 20.9953C25.5456 21.4962 26.9404 21.8437 28.3609 22.031C29.0796 22.1324 29.736 22.4944 30.2052 23.0482C30.6745 23.602 30.9238 24.309 30.9058 25.0346Z" stroke="#341713" stroke-width="2.95918" stroke-linecap="round" stroke-linejoin="round"/>
</svg>
