<svg width="22" height="22" viewBox="0 0 22 22" fill="none" xmlns="http://www.w3.org/2000/svg">
<path fill-rule="evenodd" clip-rule="evenodd" d="M18.6667 0H2.66667C1.196 0 0 1.196 0 2.66667V18.6667C0 20.1373 1.196 21.3333 2.66667 21.3333H10.6667V14H8V10.6667H10.6667V8C10.6667 6.93913 11.0881 5.92172 11.8382 5.17157C12.5884 4.42143 13.6058 4 14.6667 4H17.3333V7.33333H16C15.264 7.33333 14.6667 7.264 14.6667 8V10.6667H18L16.6667 14H14.6667V21.3333H18.6667C20.1373 21.3333 21.3333 20.1373 21.3333 18.6667V2.66667C21.3333 1.196 20.1373 0 18.6667 0Z" fill="#F4ECE6"/>
</svg>
