<svg width="35" height="35" viewBox="0 0 35 35" fill="none" xmlns="http://www.w3.org/2000/svg">
<path d="M17.5 17.4998C18.3021 17.4998 18.9887 17.2142 19.5599 16.6431C20.1311 16.0719 20.4166 15.3853 20.4166 14.5832C20.4166 13.7811 20.1311 13.0945 19.5599 12.5233C18.9887 11.9521 18.3021 11.6665 17.5 11.6665C16.6979 11.6665 16.0113 11.9521 15.4401 12.5233C14.8689 13.0945 14.5833 13.7811 14.5833 14.5832C14.5833 15.3853 14.8689 16.0719 15.4401 16.6431C16.0113 17.2142 16.6979 17.4998 17.5 17.4998ZM17.5 28.2186C20.4653 25.4964 22.6649 23.0233 24.0989 20.7993C25.533 18.5754 26.25 16.6005 26.25 14.8748C26.25 12.2255 25.4054 10.0563 23.7161 8.36702C22.0269 6.67779 19.9548 5.83317 17.5 5.83317C15.0451 5.83317 12.9731 6.67779 11.2838 8.36702C9.5946 10.0563 8.74998 12.2255 8.74998 14.8748C8.74998 16.6005 9.46699 18.5754 10.901 20.7993C12.335 23.0233 14.5347 25.4964 17.5 28.2186ZM17.5 32.0832C13.5868 28.7533 10.664 25.6604 8.73175 22.8045C6.79946 19.9486 5.83331 17.3054 5.83331 14.8748C5.83331 11.229 7.00606 8.32449 9.35154 6.1613C11.697 3.9981 14.4132 2.9165 17.5 2.9165C20.5868 2.9165 23.3029 3.9981 25.6484 6.1613C27.9939 8.32449 29.1666 11.229 29.1666 14.8748C29.1666 17.3054 28.2005 19.9486 26.2682 22.8045C24.3359 25.6604 21.4132 28.7533 17.5 32.0832Z" fill="#341713"/>
</svg>
