<svg width="52" height="52" viewBox="0 0 52 52" fill="none" xmlns="http://www.w3.org/2000/svg">
<path d="M8.67726 44.9931C8.0345 44.9931 7.49887 44.7789 7.07037 44.3504C6.64186 43.9219 6.42761 43.3862 6.42761 42.7435V34.0663C6.42761 33.6021 6.5883 33.1825 6.90968 32.8075C7.23106 32.4326 7.64171 32.1737 8.14163 32.0309L15.5333 30.5311C16.0333 30.4597 16.5421 30.5043 17.0599 30.665C17.5777 30.8257 17.9972 31.0667 18.3186 31.3881L23.3535 36.423C24.7105 35.6375 25.996 34.7715 27.2101 33.8252C28.4242 32.879 29.5847 31.8523 30.6917 30.7454C31.8701 29.6027 32.9503 28.4154 33.9322 27.1834C34.9142 25.9515 35.7623 24.6749 36.4765 23.3537L31.2809 18.1045C30.9952 17.8188 30.7988 17.4796 30.6917 17.0868C30.5846 16.694 30.5667 16.2119 30.6381 15.6406L32.0308 8.14175C32.1022 7.67754 32.3343 7.27582 32.7271 6.93658C33.1199 6.59735 33.5662 6.42773 34.0661 6.42773H42.7434C43.3861 6.42773 43.9217 6.64199 44.3503 7.07049C44.7788 7.499 44.993 8.03463 44.993 8.67738C44.993 13.141 44.02 17.551 42.0738 21.9075C40.1277 26.2639 37.3692 30.2276 33.7983 33.7985C30.2275 37.3693 26.2638 40.1278 21.9073 42.0739C17.5509 44.0201 13.1408 44.9931 8.67726 44.9931ZM38.4583 19.2829C39.0654 17.8902 39.5296 16.4797 39.851 15.0514C40.1723 13.623 40.4223 12.1768 40.6008 10.7128H35.8873L34.9232 15.7477L38.4583 19.2829ZM19.2827 38.3513L15.7476 34.8162L10.7127 35.8874V40.601C12.1767 40.4938 13.6229 40.2439 15.0513 39.8511C16.4796 39.4583 17.8901 38.9584 19.2827 38.3513Z" fill="#341713"/>
</svg>
