<svg width="143" height="143" viewBox="0 0 143 143" fill="none" xmlns="http://www.w3.org/2000/svg">
<rect x="1.42835" y="1.42835" width="139.978" height="139.978" rx="69.9891" stroke="white" stroke-opacity="0.125" stroke-width="2.8567"/>
<path fill-rule="evenodd" clip-rule="evenodd" d="M88.5576 48.564H54.2772C51.1263 48.564 48.5638 51.1264 48.5638 54.2774V88.5577C48.5638 91.7086 51.1263 94.2711 54.2772 94.2711H71.4174V78.5593H65.704V71.4175H71.4174V65.7041C71.4174 63.4312 72.3203 61.2514 73.9275 59.6442C75.5347 58.037 77.7146 57.1341 79.9875 57.1341H85.7009V64.2758H82.8442C81.2673 64.2758 79.9875 64.1272 79.9875 65.7041V71.4175H87.1292L84.2725 78.5593H79.9875V94.2711H88.5576C91.7085 94.2711 94.271 91.7086 94.271 88.5577V54.2774C94.271 51.1264 91.7085 48.564 88.5576 48.564Z" fill="#341713"/>
</svg>
