<svg width="293" height="55" viewBox="0 0 293 55" fill="none" xmlns="http://www.w3.org/2000/svg">
<path d="M674.609 22.3056C668.546 21.6052 657.105 19.5932 650.739 18.9778C650.622 18.9653 650.506 18.9529 650.389 18.9407C648.887 18.7795 647.454 18.6642 645.784 18.5544C641.799 18.3493 636.396 17.8545 625.212 18.1739C621.969 18.4212 618.753 18.7739 615.556 19.2466C615.137 19.3086 614.72 19.3725 614.304 19.4383C598.368 21.8801 583.051 32.0807 566.689 40.6828C551.872 48.9235 534.2 49.9055 519.099 48.5685C515.569 48.3274 512.154 47.7679 508.839 47.0247C508.346 46.9253 507.845 46.8196 507.339 46.7081C497.567 44.5981 486.55 40.1986 479.911 37.1676C471.462 33.2851 465.923 30.5376 461.338 28.4082C449.98 23.5548 438.243 18.8381 427.065 18.9289C410.84 19.1038 395.345 23.17 380.814 30.8261C372.743 34.8624 364.474 39.7441 354.877 42.3825C350.839 43.4999 346.634 44.1804 342.431 44.3843C337.25 44.6202 332.372 43.8317 327.7 42.7789C322.62 41.7272 317.975 40.3776 313.71 39.0161C307.748 37.1003 302.558 35.1444 298.354 33.4231C288.207 29.2561 277.139 23.8158 268.937 19.8454C268.334 19.5528 267.745 19.2669 267.171 18.9891C266.482 18.6552 265.842 18.3507 265.207 18.055C258.761 15.2848 252.174 13.0118 245.494 11.6077C245.055 11.4564 244.628 11.3094 244.175 11.1596C239.895 9.74795 234.683 8.87263 227.219 8.85219C225.127 8.84441 222.865 9.04453 220.409 9.5441C215.827 10.468 210.598 12.4836 204.801 15.9111C201.073 18.1362 199.093 19.2869 197.45 20.1976C196.97 20.4691 196.519 20.7281 196.072 21.0037C194.538 21.9483 193.152 23.2656 191.548 24.8536C189.462 26.9163 187.016 29.4407 183.281 32.3081C171.432 41.5394 166.337 46.254 161.791 49.3875C161.302 49.7247 160.826 50.0394 160.354 50.3348C159.491 50.8709 158.647 51.3424 157.772 51.7634C153.267 54.082 145.826 55.0993 140.574 54.2576C136.354 53.8576 128.328 52.0777 122.695 49.9221C120.545 49.1528 117.754 47.8705 114.599 46.2498C111.329 44.5779 107.66 42.5388 103.744 40.4996C93.8833 35.3172 88.7707 33.077 84.625 31.6543C84.5199 31.6182 84.4155 31.5827 84.3119 31.5479C83.4357 31.2598 82.6208 31.0714 81.7951 30.9495C78.9445 30.4903 75.2179 30.9669 71.21 32.6251C66.4256 34.5628 61.4785 37.7927 57.563 40.3123C52.5985 43.1574 47.4182 46.3748 40.7572 48.2943C40.5044 48.3735 39.7465 48.4972 39.4826 48.5205C31.2995 48.8349 24.7827 46.2988 18.6178 43.9737C18.2802 43.8407 17.9542 43.709 17.6198 43.571C17.5803 43.5567 17.4642 43.5078 17.4253 43.4921C11.7494 40.956 6.91803 37.3453 3.90702 34.2711C0.686851 30.9859 -0.535685 28.4967 0.213215 27.424C0.988268 26.3483 3.70269 26.7739 7.8074 28.306C11.7119 29.7612 16.4218 31.9363 21.5215 33.9068L21.3587 33.8408C21.675 33.9528 21.9813 34.0613 22.2961 34.1732C28.0005 36.1857 33.8956 37.8822 38.7313 37.4504L37.6529 37.6418C42.4571 36.1256 47.4529 32.9175 52.6507 29.7055C61.6153 24.2925 73.958 15.9767 88.1925 21.0998C92.4407 22.6604 96.4106 24.5794 100.209 26.5704C109.87 31.6549 118.725 37.3329 127.87 41.0649C128.809 41.4471 129.746 41.806 130.687 42.1393C138.522 44.6488 145.966 44.4219 150.693 42.7747C152.528 42.1912 154.068 41.5431 155.486 40.8644C157.106 40.086 158.585 39.253 159.928 38.4376C161.642 37.3925 163.186 36.3379 164.654 35.1615C165.453 34.5197 166.521 33.6317 167.817 32.5141C173.127 28.0323 181.922 19.4147 191.526 12.6985C195.772 9.73657 201.067 6.59056 206.603 4.31056C214.485 0.908921 222.82 0.0627146 226.946 0.0407128C227.039 0.0377393 227.133 0.0351362 227.227 0.0329084C233.882 -0.192315 241.714 0.747709 248.298 2.47967C254.687 4.10695 259.975 6.19769 263.058 7.16402C265.846 8.04497 268.228 9.07547 271.095 10.4911C271.989 10.9345 272.93 11.4086 273.95 11.9227C276.88 13.397 280.459 15.2071 285.393 17.5278C291.08 20.2013 295.053 22.1761 298.441 23.8234C303.205 26.1293 306.821 27.845 312.425 29.6749C318.655 31.7053 325.147 33.5926 330.182 34.8143C332.478 35.3791 335.116 35.8484 337.806 36.0551C339.227 36.1643 340.664 36.1975 342.038 36.1338C344.281 36.0304 346.44 35.7988 348.523 35.4894C351.36 35.0663 353.726 34.6467 355.832 34.1787C356.491 34.031 357.121 33.8774 357.729 33.7142C359.937 32.8875 362.115 31.9313 364.288 30.8909C364.621 30.6869 364.971 30.4683 365.336 30.2381C367.168 29.0855 369.402 27.6074 372.306 25.92C376.898 23.2514 381.219 21.174 385.935 19.2681C389.605 17.7878 393.514 16.3936 398.03 14.9694C401.124 13.9928 404.651 12.9896 408.233 12.1912C413.53 10.9951 418.841 10.2951 422.576 10.1528C423.935 10.0999 425.135 10.2017 426.337 10.3166C426.342 10.3174 426.348 10.3182 426.353 10.3189C426.434 10.3268 426.517 10.3344 426.598 10.3423C426.656 10.3395 426.714 10.3367 426.772 10.3339C436.328 9.9511 445.265 12.3995 453.689 15.1724C454.432 15.3905 455.185 15.6186 455.933 15.8508C459.556 16.9739 463.009 18.1712 465.315 18.8308C467.81 19.5304 473.816 21.9236 480.036 24.4046C484.113 26.0256 488.305 27.6467 491.746 28.819C493.755 29.5052 495.567 30.366 497.443 31.2169C499.188 32.0078 500.991 32.7917 503.036 33.3798C504.046 33.6698 505.182 33.9326 506.361 34.1779C507.404 34.3957 508.517 34.6096 509.652 34.8297C510.725 35.0351 513.044 35.6615 516.017 36.1656C517.167 36.3602 518.441 36.5355 519.737 36.651C520.583 36.7233 521.455 36.7945 522.333 36.8592C528.646 37.0571 534.741 36.9318 540.632 36.0017C541.839 35.6852 542.867 35.3147 543.643 34.92C544.204 34.636 544.659 34.3298 545.123 34.0113C545.754 33.577 546.395 33.1217 547.29 32.6408C547.995 32.2636 548.841 31.9412 549.445 31.8344C549.726 31.7853 549.954 31.7836 550.162 31.7809C550.401 31.7775 550.613 31.7734 550.847 31.6929C551.015 31.6347 551.175 31.5276 551.372 31.3954C551.688 31.1829 552.085 30.9111 552.756 30.6504C554.887 29.8237 557.214 28.7946 559.476 27.5836C559.912 27.35 560.345 27.1174 560.774 26.8863C564.078 25.1072 567.332 23.319 569.898 21.8353C572.787 20.1683 577.028 17.9869 581.444 15.87C584.525 14.3921 587.683 12.969 590.451 11.777C593.155 10.6081 596.003 9.32719 598.863 8.22463C602.292 6.89506 605.758 5.83714 608.802 5.38131C609.415 5.2889 610.215 5.33595 611.204 5.42032C611.483 5.44403 611.779 5.47054 612.091 5.49788C612.538 5.54353 613.021 5.5889 613.541 5.62596C617.186 5.08705 620.832 4.70894 624.479 4.46854C624.606 4.43246 624.736 4.39578 624.868 4.35865C624.87 4.35786 624.872 4.35707 624.874 4.35628C627.821 3.52334 631.952 2.43882 637.736 3.01768C639.194 3.16665 640.112 3.43471 640.937 3.67777C641.754 3.91764 642.458 4.13462 643.519 4.22062C644.724 4.31864 646.15 4.25995 647.706 4.21754C649.904 4.15826 652.345 4.13172 654.749 4.58694C654.913 4.61795 655.089 4.65185 655.273 4.68679C657.022 5.0174 659.586 5.5365 662.095 6.33265C669.684 7.4958 677.193 9.08025 684.584 11.0083C696.911 14.226 708.933 18.399 720.596 23.3039C726.275 25.6903 731.447 28.6119 734.967 31.2985C738.496 33.9912 740.105 36.1866 739.544 37.3465C738.974 38.5106 736.283 38.5686 732.036 37.6868C727.794 36.8057 722.334 35.0833 716.759 33.043C707.662 29.7054 698.43 26.8469 689.077 24.5144C688.584 24.4075 688.089 24.3011 687.597 24.1954C683.915 23.4036 680.465 22.9461 676.996 22.5596C676.199 22.4711 675.412 22.389 674.609 22.3056Z" fill="#FFA26D"/>
</svg>
