<svg width="709" height="55" viewBox="0 0 709 55" fill="none" xmlns="http://www.w3.org/2000/svg">
<path d="M674.609 22.3057C668.546 21.6053 657.105 19.5933 650.739 18.9779C650.622 18.9654 650.506 18.953 650.389 18.9408C648.887 18.7796 647.454 18.6643 645.784 18.5544C641.799 18.3494 636.396 17.8546 625.212 18.174C621.969 18.4213 618.753 18.774 615.556 19.2467C615.137 19.3087 614.72 19.3726 614.304 19.4383C598.368 21.8802 583.051 32.0808 566.689 40.6829C551.872 48.9236 534.2 49.9056 519.098 48.5686C515.569 48.3275 512.154 47.768 508.839 47.0248C508.346 46.9254 507.845 46.8197 507.339 46.7082C497.567 44.5982 486.55 40.1987 479.911 37.1677C471.462 33.2852 465.923 30.5377 461.338 28.4083C449.979 23.5548 438.243 18.8382 427.065 18.929C410.84 19.1039 395.345 23.1701 380.814 30.8262C372.743 34.8625 364.474 39.7442 354.877 42.3826C350.839 43.5 346.634 44.1804 342.431 44.3844C337.25 44.6203 332.372 43.8318 327.7 42.779C322.62 41.7273 317.975 40.3777 313.71 39.0162C307.748 37.1004 302.558 35.1445 298.354 33.4231C288.207 29.2561 277.139 23.8159 268.937 19.8455C268.334 19.5529 267.745 19.267 267.171 18.9892C266.482 18.6553 265.842 18.3508 265.207 18.0551C258.761 15.2849 252.174 13.0119 245.494 11.6077C245.055 11.4565 244.628 11.3095 244.175 11.1597C239.895 9.74803 234.683 8.87272 227.219 8.85227C225.126 8.84449 222.865 9.04461 220.409 9.54419C215.827 10.468 210.598 12.4837 204.801 15.9112C201.073 18.1363 199.093 19.287 197.45 20.1977C196.97 20.4692 196.519 20.7282 196.072 21.0037C194.538 21.9484 193.152 23.2657 191.548 24.8537C189.461 26.9164 187.016 29.4407 183.281 32.3082C171.432 41.5395 166.337 46.2541 161.791 49.3875C161.302 49.7247 160.826 50.0395 160.354 50.3349C159.491 50.871 158.647 51.3425 157.772 51.7635C153.267 54.0821 145.826 55.0994 140.574 54.2577C136.354 53.8576 128.328 52.0778 122.695 49.9222C120.545 49.1528 117.754 47.8706 114.599 46.2499C111.329 44.578 107.66 42.5389 103.744 40.4997C93.8833 35.3172 88.7707 33.0771 84.625 31.6544C84.5198 31.6183 84.4155 31.5828 84.3119 31.548C83.4357 31.2599 82.6208 31.0715 81.7951 30.9496C78.9445 30.4904 75.2179 30.967 71.2099 32.6252C66.4256 34.5629 61.4784 37.7928 57.563 40.3124C52.5985 43.1575 47.4182 46.3749 40.7572 48.2944C40.5044 48.3736 39.7465 48.4973 39.4826 48.5206C31.2995 48.835 24.7826 46.2989 18.6178 43.9738C18.2802 43.8408 17.9542 43.7091 17.6198 43.5711C17.5802 43.5568 17.4642 43.5079 17.4252 43.4922C11.7493 40.9561 6.91801 37.3454 3.90699 34.2712C0.686823 30.986 -0.535712 28.4968 0.213188 27.4241C0.98824 26.3484 3.70266 26.774 7.80737 28.3061C11.7119 29.7613 16.4217 31.9363 21.5215 33.9069L21.3587 33.8409C21.675 33.9529 21.9813 34.0614 22.2961 34.1733C28.0005 36.1858 33.8956 37.8822 38.7313 37.4505L37.6529 37.6419C42.4571 36.1257 47.4529 32.9175 52.6507 29.7056C61.6153 24.2926 73.958 15.9768 88.1925 21.0999C92.4407 22.6605 96.4105 24.5795 100.209 26.5705C109.87 31.655 118.725 37.333 127.87 41.065C128.809 41.4472 129.746 41.8061 130.687 42.1394C138.522 44.6489 145.966 44.4219 150.693 42.7748C152.528 42.1913 154.068 41.5432 155.486 40.8645C157.106 40.0861 158.585 39.2531 159.928 38.4377C161.642 37.3926 163.186 36.338 164.654 35.1616C165.453 34.5198 166.521 33.6318 167.817 32.5142C173.127 28.0324 181.922 19.4147 191.526 12.6986C195.772 9.73665 201.067 6.59065 206.603 4.31064C214.485 0.909007 222.82 0.0628004 226.946 0.0407987C227.039 0.0378251 227.133 0.0352221 227.226 0.0329943C233.882 -0.192229 241.714 0.747795 248.298 2.47976C254.687 4.10703 259.975 6.19777 263.058 7.16411C265.846 8.04506 268.228 9.07555 271.095 10.4912C271.989 10.9346 272.93 11.4087 273.95 11.9227C276.88 13.3971 280.459 15.2072 285.393 17.5279C291.08 20.2014 295.053 22.1762 298.441 23.8235C303.205 26.1294 306.821 27.8451 312.425 29.675C318.655 31.7054 325.146 33.5926 330.182 34.8144C332.478 35.3792 335.116 35.8485 337.806 36.0552C339.227 36.1643 340.664 36.1976 342.038 36.1339C344.281 36.0305 346.44 35.7989 348.523 35.4895C351.36 35.0664 353.726 34.6468 355.832 34.1788C356.491 34.0311 357.121 33.8775 357.729 33.7143C359.937 32.8876 362.115 31.9314 364.288 30.891C364.621 30.687 364.971 30.4684 365.336 30.2382C367.168 29.0856 369.402 27.6075 372.306 25.9201C376.898 23.2514 381.219 21.174 385.935 19.2682C389.604 17.7879 393.514 16.3937 398.03 14.9695C401.124 13.9929 404.651 12.9897 408.233 12.1913C413.53 10.9952 418.84 10.2952 422.576 10.1529C423.935 10.1 425.135 10.2018 426.337 10.3167C426.342 10.3175 426.347 10.3182 426.353 10.319C426.434 10.3269 426.516 10.3345 426.598 10.3424C426.656 10.3396 426.714 10.3368 426.772 10.334C436.328 9.95119 445.265 12.3996 453.689 15.1724C454.432 15.3906 455.185 15.6187 455.933 15.8509C459.556 16.9739 463.009 18.1713 465.315 18.8309C467.81 19.5305 473.816 21.9237 480.035 24.4046C484.113 26.0257 488.305 27.6467 491.746 28.8191C493.755 29.5053 495.567 30.3661 497.443 31.2169C499.188 32.0079 500.991 32.7918 503.036 33.3798C504.046 33.6699 505.182 33.9327 506.361 34.178C507.404 34.3958 508.517 34.6097 509.652 34.8298C510.725 35.0352 513.044 35.6616 516.017 36.1657C517.167 36.3602 518.441 36.5356 519.737 36.6511C520.583 36.7234 521.455 36.7946 522.333 36.8593C528.646 37.0572 534.741 36.9319 540.632 36.0018C541.839 35.6853 542.867 35.3148 543.643 34.9201C544.204 34.6361 544.659 34.3299 545.123 34.0113C545.754 33.5771 546.395 33.1217 547.29 32.6409C547.995 32.2637 548.841 31.9413 549.445 31.8345C549.726 31.7853 549.954 31.7837 550.162 31.781C550.401 31.7776 550.613 31.7734 550.847 31.693C551.015 31.6348 551.175 31.5276 551.372 31.3955C551.688 31.183 552.085 30.9112 552.756 30.6505C554.887 29.8238 557.214 28.7946 559.476 27.5837C559.912 27.3501 560.345 27.1175 560.774 26.8864C564.078 25.1072 567.332 23.3191 569.898 21.8354C572.787 20.1684 577.028 17.987 581.444 15.8701C584.525 14.3922 587.683 12.9691 590.45 11.777C593.155 10.6082 596.003 9.32727 598.863 8.22472C602.292 6.89515 605.758 5.83722 608.802 5.3814C609.415 5.28899 610.215 5.33604 611.204 5.42041C611.483 5.44411 611.779 5.47063 612.091 5.49796C612.538 5.54362 613.021 5.58898 613.541 5.62605C617.186 5.08714 620.832 4.70902 624.479 4.46863C624.606 4.43255 624.736 4.39586 624.868 4.35874C624.87 4.35795 624.872 4.35715 624.874 4.35636C627.821 3.52343 631.952 2.4389 637.736 3.01776C639.194 3.16673 640.112 3.4348 640.937 3.67786C641.754 3.91773 642.458 4.1347 643.519 4.2207C644.724 4.31872 646.15 4.26004 647.706 4.21762C649.904 4.15834 652.345 4.13181 654.749 4.58702C654.913 4.61804 655.089 4.65193 655.273 4.68687C657.022 5.01748 659.586 5.53658 662.095 6.33274C669.684 7.49588 677.193 9.08033 684.584 11.0084C696.911 14.2261 708.933 18.3991 720.596 23.304C726.275 25.6903 731.447 28.612 734.967 31.2986C738.496 33.9912 740.105 36.1867 739.544 37.3466C738.974 38.5107 736.283 38.5687 732.036 37.6869C727.794 36.8058 722.334 35.0834 716.759 33.0431C707.662 29.7055 698.43 26.847 689.077 24.5145C688.584 24.4076 688.089 24.3012 687.597 24.1955C683.915 23.4037 680.465 22.9462 676.996 22.5597C676.199 22.4712 675.412 22.3891 674.609 22.3057Z" fill="#FFA26D"/>
</svg>
