<svg width="697" height="69" viewBox="0 0 697 69" fill="none" xmlns="http://www.w3.org/2000/svg">
<path d="M639.786 27.2748C634.69 30.3639 624.278 36.6613 618.275 40.2971C618.166 40.3631 618.056 40.4292 617.947 40.4952C616.53 41.346 615.191 42.172 613.606 43.1333C610.374 45.0438 606.27 47.7032 597.775 51.6205C596.136 52.3633 594.365 53.0851 592.383 53.7727C588.651 55.2046 584.778 56.283 580.856 56.9932C556.877 61.2764 534.186 52.152 515.265 42.2606C502.177 35.1923 486.199 36.7822 470.504 41.5739C470.06 41.7166 469.607 41.8639 469.148 42.0149C464.64 43.4961 459.562 45.3757 454.681 47.1664C449.578 49.0393 444.636 50.2002 440.794 50.8415C430.811 52.4501 424.023 52.382 418.485 52.2312C415.205 52.2025 411.929 52.0505 408.661 51.7694C386.593 47.6808 378.731 29.335 365.461 21.4344C357.737 16.5696 347.995 14.576 338.258 14.1616C329.142 13.7872 319.868 14.7388 310.755 16.4994C302.663 18.0734 294.647 20.3004 286.907 23.1119C286.611 23.2196 286.316 23.3273 286.023 23.4349C281.338 25.2736 276.89 27.1669 272.834 28.9907C267.151 31.5451 262.161 33.9958 258.052 36.0199C248.033 40.8073 237.563 46.9484 228.321 51.3326C226.762 52.0231 225.182 52.6439 223.505 53.0895C221.73 53.6013 219.578 53.9712 217.255 53.6597C210.259 52.7757 203.799 49.6744 198.439 45.8408C198.024 45.4752 197.618 45.1047 197.211 44.722C192.118 39.9969 186.457 33.9791 178.226 24.8607C174.609 21.011 170.462 16.3556 165.036 12.9507C162.775 11.5812 161.224 10.942 159.993 10.48C159.261 10.2184 158.652 10.0172 158.066 9.84832C157.583 9.70905 157.123 9.59446 156.652 9.50645C155.034 9.20721 153.277 9.43087 151.303 9.99371C148.729 10.735 145.802 12.019 141.695 13.9043C128.601 20.586 124.122 26.5763 120.555 30.1178C119.534 31.2154 118.581 32.2445 117.604 33.2219C114.835 35.9862 110.782 39.5119 107.251 42.4269C106.684 42.8943 106.133 43.3455 105.603 43.7762C102.573 46.2167 97.039 51.8693 92.2721 55.9463C90.4848 57.4861 87.8865 59.408 84.6012 61.3804C82.994 62.345 81.2267 63.3164 79.3198 64.2599C77.0326 65.3925 74.5155 66.3302 71.882 67.0455C59.1317 69.999 52.7402 68.5274 47.888 68.6367C46.9018 68.6091 45.9819 68.5887 45.1 68.583C44.616 68.5761 44.1373 68.5559 43.6616 68.5232C38.3524 68.2287 32.3757 65.7704 27.5457 62.5277C21.6922 58.6527 16.9394 54.0132 13.364 50.6418C8.82835 45.9374 4.60821 41.156 0.258614 37.3591L1.50494 38.1634C-2.96397 35.9085 -8.34303 34.6775 -13.8607 34.1663C-17.3105 33.8453 -20.7478 33.6461 -23.9011 33.4571L-23.5501 33.4236C-25.6351 33.4296 -27.5812 33.5026 -29.3576 33.5548C-33.6843 33.7177 -36.5825 33.4612 -36.9835 32.1812C-37.3716 30.9509 -35.5007 28.8518 -31.1612 26.6596C-29.3707 25.7769 -27.1882 24.9617 -24.7349 24.3761C-24.6776 24.3697 -24.5062 24.3511 -24.4486 24.3487C-21.0121 23.762 -17.1106 23.4874 -13.0796 23.7275C-6.63379 24.1273 -0.0243835 25.294 6.29942 28.2097C6.53009 28.3264 7.15825 28.7199 7.35315 28.8897C13.0802 33.6111 17.7252 38.7209 22.5323 43.3828C29.7713 50.4813 37.8176 57.2509 45.4963 57.3888C50.9364 57.5803 55.8614 58.0365 60.5948 57.8986C65.7859 57.7701 70.643 56.9424 74.7883 54.9332C79.1586 52.8338 83.2174 50.1759 87.1368 47.0569C87.9721 46.3941 88.8019 45.7124 89.6289 45.0142C93.2416 41.6874 96.7949 38.0483 100.179 34.7532C102.848 32.1469 105.324 29.7568 107.435 27.7727C111.376 24.0673 114.456 21.5682 117.146 19.4483C119.003 17.9848 120.655 16.7169 122.305 15.3593C123.186 14.6353 124.399 13.6362 125.901 12.4591C131.782 8.11562 143.808 -1.98932 159.085 0.345518C160.162 0.518288 161.241 0.753972 162.333 1.05761C168.033 2.62606 172.722 6.23 176.414 9.734C182.757 15.8936 187.219 21.9337 189.92 24.617C194.533 29.3986 199.561 34.8392 204.581 38.526C209.328 42.1132 214.053 43.8669 216.809 44.176C217.403 44.2515 217.983 44.3164 218.562 44.3725C219.77 44.4766 222.076 43.9409 225.467 42.3945C228.373 41.0894 232.017 39.1541 237.035 36.4494C242.833 33.3254 247.106 31.3456 250.738 29.7292C255.858 27.4644 259.777 25.8331 265.397 23.0902C271.641 20.048 278.417 17.2127 283.836 15.3814C283.923 15.3519 284.011 15.3221 284.099 15.2922C286.535 14.462 289.309 13.5221 292.216 12.6294C296.196 11.4037 300.437 10.2718 304.37 9.51319C307.61 8.88728 310.341 8.62761 312.75 8.44362C313.502 8.38639 314.224 8.33653 314.922 8.28703C317.51 7.87808 320.113 7.53357 322.725 7.26211C323.145 7.17834 323.586 7.08997 324.047 7.00082C326.362 6.55568 329.233 6.05505 332.842 5.84222C338.553 5.52017 343.626 5.9524 348.922 6.92359C353.038 7.6989 357.295 8.78176 362.067 10.574C364.543 11.5099 367.247 12.7096 369.878 14.2373C370.699 14.7132 371.513 15.2227 372.296 15.7426C377.175 19.0112 381.215 22.7275 383.883 25.3481C384.878 26.338 385.633 27.2778 386.379 28.2026C386.382 28.2069 386.385 28.2112 386.388 28.2155C386.439 28.2782 386.49 28.341 386.541 28.4037C393.08 34.3836 399.904 40.5279 407.079 42.021C407.698 42.1166 408.315 42.1756 408.921 42.1956C409.06 42.2003 409.199 42.2029 409.338 42.2035C412.848 42.2689 416.214 42.1372 418.434 41.861C420.954 41.5601 427.304 41.2245 433.822 40.0691C438.09 39.3339 442.408 38.2572 445.791 37.0933C447.379 36.551 448.923 36.1416 450.477 35.7073C450.894 35.5878 451.313 35.4699 451.734 35.3515C453.724 34.7926 455.776 34.2186 457.964 33.3995C459.059 32.9899 460.234 32.5057 461.494 31.9975C462.605 31.5498 463.787 31.0819 465.041 30.6314C466.21 30.2143 468.863 29.4463 472.353 28.6034C474.506 28.085 476.985 27.5413 479.621 27.0599C486.516 25.5167 493.826 24.6531 501.251 25.2582C502.81 25.258 504.176 25.2595 505.284 25.1967C506.076 25.1513 506.767 25.069 507.485 24.9982C508.454 24.9021 509.481 24.8235 510.847 24.9373C511.919 25.026 513.147 25.317 513.922 25.6518C514.284 25.8073 514.549 25.9683 514.788 26.1152C515.059 26.2828 515.298 26.433 515.617 26.5464C515.847 26.6281 516.102 26.6692 516.417 26.724C516.922 26.8129 517.574 26.9304 518.489 27.3104C519.625 27.7833 520.763 28.3049 521.939 28.8974C523.962 29.9194 526.046 30.978 528.103 31.9802C531.526 33.6526 534.86 35.145 537.571 36.1786C540.607 37.3453 544.85 39.0765 549.19 40.4396C552.211 41.3974 555.27 42.1761 557.912 42.6453C560.499 43.1094 563.219 43.2903 565.821 43.2967C568.948 43.3094 571.896 43.0675 574.403 42.9589C574.911 42.9374 575.554 43.0638 576.378 43.1987C576.964 43.2937 577.633 43.394 578.4 43.4453C581.585 42.8682 584.703 42.007 587.722 40.8632C587.818 40.7971 587.918 40.7291 588.017 40.66C588.018 40.6587 588.02 40.6574 588.021 40.6561C588.99 39.9812 590.053 39.1863 591.334 38.3101C593.137 37.097 595.339 35.7886 598.207 34.5203C599.487 33.9532 600.372 33.7212 601.174 33.5086C601.961 33.299 602.665 33.1082 603.575 32.6114C604.607 32.047 605.729 31.2106 606.951 30.2868C608.668 28.9895 610.584 27.5172 612.759 26.3923C612.908 26.3155 613.068 26.2331 613.234 26.1468C614.808 25.3308 617.158 24.1049 619.643 23.0896C626.389 19.0678 633.422 15.0611 641.317 12.173C649.547 9.12149 659.135 7.65135 668.237 9.62333C673.765 10.7564 678.781 13.3585 682.979 16.5319C688.57 20.761 692.342 26.0464 694.444 30.2106C696.531 34.4062 696.87 37.2003 695.826 37.9374C694.754 38.6827 692.358 37.3217 688.954 34.599C685.543 31.8881 681.348 28.0833 676.853 25.0205C673.457 22.6937 669.856 21.1104 666.184 20.5342C661.606 19.7891 656.985 20.0898 652.368 21.2603C651.922 21.3892 651.473 21.5257 651.025 21.668C647.695 22.7313 644.721 24.2855 641.799 26.0335C641.124 26.4375 640.458 26.8504 639.786 27.2748Z" fill="#FFA26D"/>
</svg>
