<svg width="143" height="143" viewBox="0 0 143 143" fill="none" xmlns="http://www.w3.org/2000/svg">
<rect x="1.42835" y="1.42835" width="139.978" height="139.978" rx="69.9891" stroke="white" stroke-opacity="0.125" stroke-width="2.8567"/>
<path d="M101.27 55.5017C100.484 52.645 98.5204 50.6045 95.7708 49.7883C91.0573 48.564 71.0246 48.564 71.0246 48.564C71.0246 48.564 51.3849 48.564 46.2785 49.7883C43.529 50.6045 41.5649 52.645 40.7794 55.5017C39.9938 60.807 39.9938 71.4175 39.9938 71.4175C39.9938 71.4175 39.9938 82.0281 41.1722 87.3334C41.9578 90.1901 43.9217 92.2306 46.6713 93.0468C51.3848 94.2711 71.4174 94.2711 71.4174 94.2711C71.4174 94.2711 91.0572 94.2711 96.1635 93.0468C98.9131 92.2306 100.877 90.1901 101.663 87.3334C102.841 82.0281 102.841 71.4175 102.841 71.4175C102.841 71.4175 102.841 60.807 101.27 55.5017ZM65.1327 81.2119V61.6232L81.6301 71.4175L65.1327 81.2119Z" fill="#341713"/>
</svg>
