<svg width="143" height="143" viewBox="0 0 143 143" fill="none" xmlns="http://www.w3.org/2000/svg">
<rect x="1.42835" y="1.42835" width="139.978" height="139.978" rx="69.9891" stroke="white" stroke-opacity="0.125" stroke-width="2.8567"/>
<path d="M71.4174 52.6941C77.475 52.6941 78.301 52.6941 80.7791 52.6941C82.9819 52.6941 84.0833 53.2448 84.9093 53.5202C86.0107 54.0709 86.8367 54.3462 87.6627 55.1722C88.4888 55.9983 89.0394 56.8243 89.3148 57.9257C89.5901 58.7517 89.8655 59.8531 90.1408 62.0558C90.1408 64.5339 90.1408 65.0846 90.1408 71.4175C90.1408 77.7505 90.1408 78.3011 90.1408 80.7792C90.1408 82.982 89.5901 84.0834 89.3148 84.9094C88.7641 86.0108 88.4888 86.8368 87.6627 87.6628C86.8367 88.4889 86.0107 89.0396 84.9093 89.3149C84.0833 89.5903 82.9819 89.8656 80.7791 90.1409C78.301 90.1409 77.7503 90.1409 71.4174 90.1409C65.0845 90.1409 64.5338 90.1409 62.0557 90.1409C59.853 90.1409 58.7516 89.5903 57.9255 89.3149C56.8242 88.7642 55.9981 88.4889 55.1721 87.6628C54.3461 86.8368 53.7954 86.0108 53.52 84.9094C53.2447 84.0834 52.9694 82.982 52.694 80.7792C52.694 78.3011 52.694 77.7505 52.694 71.4175C52.694 65.0846 52.694 64.5339 52.694 62.0558C52.694 59.8531 53.2447 58.7517 53.52 57.9257C54.0707 56.8243 54.3461 55.9983 55.1721 55.1722C55.9981 54.3462 56.8242 53.7955 57.9255 53.5202C58.7516 53.2448 59.853 52.9695 62.0557 52.6941C64.5338 52.6941 65.3598 52.6941 71.4174 52.6941ZM71.4174 48.564C65.0845 48.564 64.5338 48.564 62.0557 48.564C59.5776 48.564 57.9255 49.1147 56.5488 49.6653C55.1721 50.216 53.7954 51.0421 52.4187 52.4188C51.0419 53.7955 50.4913 54.8969 49.6652 56.5489C49.1145 57.9257 48.8392 59.5777 48.5638 62.0558C48.5638 64.5339 48.5638 65.36 48.5638 71.4175C48.5638 77.7505 48.5638 78.3011 48.5638 80.7792C48.5638 83.2573 49.1145 84.9094 49.6652 86.2861C50.2159 87.6628 51.0419 89.0396 52.4187 90.4163C53.7954 91.793 54.8968 92.3437 56.5488 93.1697C57.9255 93.7204 59.5776 93.9958 62.0557 94.2711C64.5338 94.2711 65.3598 94.2711 71.4174 94.2711C77.475 94.2711 78.301 94.2711 80.7791 94.2711C83.2572 94.2711 84.9093 93.7204 86.286 93.1697C87.6627 92.619 89.0394 91.793 90.4162 90.4163C91.7929 89.0396 92.3436 87.9382 93.1696 86.2861C93.7203 84.9094 93.9956 83.2573 94.271 80.7792C94.271 78.3011 94.271 77.4751 94.271 71.4175C94.271 65.36 94.271 64.5339 94.271 62.0558C94.271 59.5777 93.7203 57.9257 93.1696 56.5489C92.6189 55.1722 91.7929 53.7955 90.4162 52.4188C89.0394 51.0421 87.9381 50.4914 86.286 49.6653C84.9093 49.1147 83.2572 48.8393 80.7791 48.564C78.301 48.564 77.7503 48.564 71.4174 48.564Z" fill="#341713"/>
<path d="M71.4174 59.5777C64.8092 59.5777 59.5776 64.8093 59.5776 71.4175C59.5776 78.0258 64.8092 83.2573 71.4174 83.2573C78.0257 83.2573 83.2572 78.0258 83.2572 71.4175C83.2572 64.8093 78.0257 59.5777 71.4174 59.5777ZM71.4174 79.1272C67.2873 79.1272 63.7078 75.823 63.7078 71.4175C63.7078 67.2874 67.0119 63.7079 71.4174 63.7079C75.5476 63.7079 79.1271 67.012 79.1271 71.4175C79.1271 75.5477 75.5476 79.1272 71.4174 79.1272Z" fill="#341713"/>
<path d="M83.5326 62.0558C85.0532 62.0558 86.286 60.8231 86.286 59.3024C86.286 57.7817 85.0532 56.5489 83.5326 56.5489C82.0119 56.5489 80.7791 57.7817 80.7791 59.3024C80.7791 60.8231 82.0119 62.0558 83.5326 62.0558Z" fill="#341713"/>
</svg>
