<svg width="273" height="69" viewBox="0 0 273 69" fill="none" xmlns="http://www.w3.org/2000/svg">
<path d="M215.916 27.2748C210.82 30.3639 200.408 36.6613 194.405 40.2971C194.296 40.3632 194.186 40.4292 194.077 40.4953C192.66 41.346 191.321 42.172 189.736 43.1334C186.504 45.0438 182.4 47.7032 173.904 51.6205C172.266 52.3633 170.494 53.0851 168.513 53.7728C164.781 55.2046 160.908 56.283 156.986 56.9932C133.006 61.2765 110.315 52.152 91.395 42.2607C78.3065 35.1923 62.3287 36.7823 46.6342 41.574C46.1897 41.7166 45.7367 41.8639 45.2782 42.015C40.7698 43.4961 35.6923 45.3757 30.8114 47.1665C25.7075 49.0393 20.7661 50.2002 16.9238 50.8415C6.94119 52.4502 0.152832 52.382 -5.38531 52.2313C-8.66559 52.2025 -11.9412 52.0505 -15.2094 51.7695C-37.2768 47.6808 -45.1394 29.335 -58.4089 21.4344C-66.1335 16.5696 -75.8752 14.576 -85.6117 14.1616C-94.7285 13.7873 -104.002 14.7388 -113.115 16.4994C-121.207 18.0735 -129.223 20.3004 -136.963 23.1119C-137.259 23.2197 -137.554 23.3273 -137.847 23.4349C-142.532 25.2736 -146.98 27.1669 -151.036 28.9907C-156.719 31.5451 -161.709 33.9958 -165.818 36.0199C-175.837 40.8073 -186.308 46.9484 -195.549 51.3326C-197.108 52.0231 -198.688 52.6439 -200.365 53.0896C-202.14 53.6013 -204.292 53.9712 -206.615 53.6598C-213.611 52.7757 -220.071 49.6744 -225.431 45.8408C-225.846 45.4752 -226.252 45.1047 -226.659 44.7221C-231.752 39.997 -237.413 33.9791 -245.644 24.8607C-249.261 21.011 -253.408 16.3557 -258.834 12.9508C-261.095 11.5813 -262.647 10.942 -263.877 10.48C-264.609 10.2184 -265.218 10.0172 -265.804 9.84834C-266.287 9.70907 -266.748 9.59448 -267.218 9.50647C-268.836 9.20723 -270.594 9.43089 -272.567 9.99373C-275.142 10.7351 -278.068 12.0191 -282.175 13.9043C-295.27 20.586 -299.748 26.5764 -303.315 30.1178C-304.336 31.2154 -305.289 32.2445 -306.266 33.2219C-309.035 35.9862 -313.088 39.5119 -316.619 42.4269C-317.186 42.8943 -317.737 43.3455 -318.267 43.7762C-321.297 46.2167 -326.831 51.8693 -331.598 55.9463C-333.385 57.4862 -335.984 59.408 -339.269 61.3804C-340.876 62.3451 -342.643 63.3164 -344.55 64.2599C-346.838 65.3926 -349.355 66.3302 -351.988 67.0456C-364.738 69.9991 -371.13 68.5274 -375.982 68.6367C-376.968 68.6091 -377.888 68.5887 -378.77 68.583C-379.254 68.5762 -379.733 68.556 -380.209 68.5232C-385.518 68.2287 -391.494 65.7704 -396.324 62.5277C-402.178 58.6527 -406.931 54.0133 -410.506 50.6418C-415.042 45.9374 -419.262 41.156 -423.612 37.3592L-422.365 38.1635C-426.834 35.9085 -432.213 34.6775 -437.731 34.1664C-441.181 33.8453 -444.618 33.6462 -447.771 33.4571L-447.42 33.4236C-449.505 33.4297 -451.451 33.5026 -453.228 33.5548C-457.554 33.7177 -460.453 33.4612 -460.854 32.1812C-461.242 30.951 -459.371 28.8518 -455.031 26.6597C-453.241 25.7769 -451.058 24.9618 -448.605 24.3761C-448.548 24.3697 -448.376 24.3511 -448.319 24.3488C-444.882 23.7621 -440.981 23.4874 -436.95 23.7276C-430.504 24.1273 -423.895 25.2941 -417.571 28.2097C-417.34 28.3264 -416.712 28.7199 -416.517 28.8897C-410.79 33.6111 -406.145 38.7209 -401.338 43.3828C-394.099 50.4814 -386.052 57.2509 -378.374 57.3889C-372.934 57.5803 -368.009 58.0365 -363.275 57.8986C-358.084 57.7702 -353.227 56.9424 -349.082 54.9333C-344.711 52.8338 -340.653 50.1759 -336.733 47.0569C-335.898 46.3941 -335.068 45.7125 -334.241 45.0142C-330.628 41.6875 -327.075 38.0483 -323.691 34.7532C-321.022 32.1469 -318.546 29.7569 -316.435 27.7727C-312.494 24.0673 -309.414 21.5683 -306.725 19.4483C-304.867 17.9848 -303.215 16.7169 -301.565 15.3594C-300.684 14.6353 -299.471 13.6362 -297.969 12.4591C-292.088 8.11564 -280.063 -1.9893 -264.785 0.34554C-263.708 0.51831 -262.629 0.753994 -261.537 1.05763C-255.837 2.62608 -251.148 6.23002 -247.456 9.73402C-241.113 15.8936 -236.651 21.9337 -233.95 24.6171C-229.337 29.3986 -224.309 34.8392 -219.289 38.526C-214.542 42.1133 -209.817 43.8669 -207.061 44.176C-206.467 44.2515 -205.887 44.3164 -205.308 44.3725C-204.1 44.4766 -201.794 43.9409 -198.403 42.3945C-195.498 41.0894 -191.853 39.1541 -186.835 36.4494C-181.037 33.3254 -176.764 31.3456 -173.132 29.7292C-168.012 27.4644 -164.093 25.8331 -158.473 23.0902C-152.229 20.0481 -145.453 17.2127 -140.034 15.3814C-139.947 15.3519 -139.86 15.3221 -139.772 15.2922C-137.335 14.462 -134.561 13.5221 -131.654 12.6294C-127.674 11.4037 -123.433 10.2718 -119.5 9.51321C-116.26 8.8873 -113.53 8.62763 -111.121 8.44364C-110.368 8.38641 -109.646 8.33656 -108.948 8.28705C-106.36 7.8781 -103.757 7.53359 -101.145 7.26214C-100.725 7.17836 -100.284 7.09 -99.8228 7.00084C-97.5085 6.5557 -94.6373 6.05507 -91.0284 5.84224C-85.3168 5.52019 -80.2437 5.95242 -74.9479 6.92361C-70.8322 7.69892 -66.5752 8.78178 -61.8031 10.574C-59.3271 11.5099 -56.6227 12.7096 -53.9917 14.2374C-53.1707 14.7133 -52.3574 15.2227 -51.5745 15.7426C-46.6954 19.0112 -42.6547 22.7275 -39.9871 25.3481C-38.9916 26.338 -38.2367 27.2778 -37.4911 28.2027C-37.488 28.2069 -37.4849 28.2112 -37.4818 28.2155C-37.4312 28.2783 -37.3802 28.3411 -37.3296 28.4037C-30.7898 34.3836 -23.9657 40.528 -16.7906 42.021C-16.1718 42.1166 -15.5548 42.1756 -14.9496 42.1957C-14.8101 42.2003 -14.671 42.2029 -14.5325 42.2035C-11.0221 42.2689 -7.65634 42.1372 -5.43625 41.861C-2.91614 41.5602 3.43399 41.2245 9.95151 40.0692C14.2198 39.3339 18.5379 38.2572 21.921 37.0933C23.5087 36.5511 25.0527 36.1416 26.6071 35.7073C27.024 35.5878 27.4429 35.4699 27.8643 35.3515C29.8542 34.7926 31.9057 34.2187 34.0939 33.3995C35.1886 32.9899 36.3636 32.5057 37.6241 31.9976C38.7352 31.5498 39.9165 31.0819 41.1708 30.6314C42.3401 30.2143 44.9934 29.4464 48.4832 28.6034C50.6358 28.085 53.1152 27.5413 55.7508 27.0599C62.6463 25.5167 69.9562 24.6531 77.3809 25.2582C78.9398 25.2581 80.3054 25.2595 81.4142 25.1967C82.2059 25.1513 82.8972 25.069 83.6149 24.9983C84.5841 24.9022 85.6108 24.8236 86.9773 24.9373C88.0488 25.0261 89.2772 25.317 90.0521 25.6518C90.4142 25.8073 90.6788 25.9683 90.918 26.1153C91.1892 26.2828 91.428 26.4331 91.7467 26.5464C91.9764 26.6282 92.2321 26.6692 92.5472 26.724C93.0521 26.813 93.7039 26.9304 94.6191 27.3104C95.7549 27.7833 96.8925 28.3049 98.0687 28.8974C100.092 29.9194 102.176 30.978 104.233 31.9802C107.655 33.6526 110.99 35.145 113.701 36.1786C116.737 37.3453 120.98 39.0765 125.32 40.4396C128.341 41.3974 131.4 42.1761 134.042 42.6453C136.629 43.1094 139.349 43.2903 141.951 43.2967C145.078 43.3094 148.026 43.0675 150.533 42.9589C151.041 42.9374 151.683 43.0639 152.508 43.1987C153.094 43.2937 153.763 43.394 154.529 43.4453C157.714 42.8682 160.833 42.0071 163.852 40.8632C163.948 40.7972 164.047 40.7291 164.146 40.66C164.148 40.6587 164.149 40.6574 164.151 40.6561C165.12 39.9812 166.183 39.1863 167.464 38.3101C169.267 37.0971 171.469 35.7886 174.337 34.5203C175.617 33.9533 176.502 33.7213 177.304 33.5086C178.091 33.299 178.795 33.1082 179.704 32.6114C180.737 32.0471 181.859 31.2106 183.081 30.2868C184.798 28.9896 186.714 27.5172 188.889 26.3923C189.038 26.3155 189.198 26.2331 189.364 26.1469C190.938 25.3308 193.288 24.1049 195.773 23.0896C202.519 19.0678 209.552 15.0611 217.447 12.1731C225.677 9.12152 235.264 7.65137 244.367 9.62336C249.895 10.7564 254.911 13.3585 259.109 16.532C264.7 20.761 268.471 26.0464 270.574 30.2106C272.661 34.4062 273 37.2003 271.955 37.9374C270.884 38.6827 268.487 37.3217 265.084 34.599C261.673 31.8881 257.478 28.0833 252.983 25.0205C249.587 22.6937 245.986 21.1104 242.314 20.5342C237.736 19.7891 233.115 20.0898 228.498 21.2603C228.052 21.3892 227.603 21.5257 227.155 21.668C223.825 22.7314 220.851 24.2856 217.928 26.0335C217.254 26.4376 216.588 26.8504 215.916 27.2748Z" fill="#FFA26D"/>
</svg>
