<svg width="31" height="31" viewBox="0 0 31 31" fill="none" xmlns="http://www.w3.org/2000/svg">
<path d="M27.5457 12.6849H26.5282V12.6325H15.159V17.6855H22.2982C21.2567 20.6269 18.4579 22.7385 15.159 22.7385C10.9732 22.7385 7.57948 19.3447 7.57948 15.159C7.57948 10.9732 10.9732 7.57948 15.159 7.57948C17.0911 7.57948 18.8489 8.30837 20.1873 9.49899L23.7604 5.92589C21.5043 3.82321 18.4864 2.52649 15.159 2.52649C8.18268 2.52649 2.52649 8.18268 2.52649 15.159C2.52649 22.1353 8.18268 27.7914 15.159 27.7914C22.1353 27.7914 27.7914 22.1353 27.7914 15.159C27.7914 14.312 27.7043 13.4852 27.5457 12.6849Z" fill="#FFC107"/>
<path d="M3.98303 9.27918L8.13343 12.323C9.25646 9.54257 11.9762 7.57948 15.159 7.57948C17.0911 7.57948 18.8489 8.30837 20.1873 9.49899L23.7604 5.92589C21.5043 3.82321 18.4864 2.52649 15.159 2.52649C10.3069 2.52649 6.09897 5.26584 3.98303 9.27918Z" fill="#FF3D00"/>
<path d="M15.159 27.7914C18.4219 27.7914 21.3868 26.5426 23.6284 24.512L19.7187 21.2035C18.408 22.2009 16.806 22.7401 15.159 22.7384C11.8733 22.7384 9.08338 20.6433 8.03235 17.7195L3.9129 20.8934C6.00358 24.9844 10.2494 27.7914 15.159 27.7914Z" fill="#4CAF50"/>
<path d="M27.5457 12.685H26.5282V12.6326H15.1589V17.6856H22.2982C21.8 19.0855 20.9025 20.3088 19.7167 21.2043L19.7186 21.2031L23.6284 24.5115C23.3517 24.7629 27.7914 21.4753 27.7914 15.1591C27.7914 14.3121 27.7043 13.4853 27.5457 12.685Z" fill="#1976D2"/>
</svg>
