<svg width="30" height="25" viewBox="0 0 30 25" fill="none" xmlns="http://www.w3.org/2000/svg">
<path d="M2 0.474121C0.89543 0.474121 0 1.36955 0 2.47412C0 3.57869 0.89543 4.47412 2 4.47412V2.47412V0.474121ZM2.1 2.47412V4.47412H2.15526L2.21044 4.47107L2.1 2.47412ZM16.8989 2.59377L16.6461 0.609816L16.8989 2.59377ZM26.9198 2.1864L27.4831 0.267367L27.4589 0.26027L27.4346 0.253784L26.9198 2.1864ZM27.9 2.47412L27.3367 4.39316L27.6125 4.47412H27.9V2.47412ZM28 4.47412C29.1046 4.47412 30 3.57869 30 2.47412C30 1.36955 29.1046 0.474121 28 0.474121V2.47412V4.47412ZM2 2.47412V4.47412H2.1V2.47412V0.474121H2V2.47412ZM2.1 2.47412L2.21044 4.47107C6.08352 4.25686 8.87351 4.29573 10.6641 4.54307L10.9378 2.56188L11.2114 0.580695C9.028 0.279092 5.92614 0.259454 1.98956 0.477173L2.1 2.47412ZM10.9378 2.56188L10.6641 4.54307C12.8255 4.84163 14.9896 4.85325 17.1517 4.57773L16.8989 2.59377L16.6461 0.609816C14.8341 0.840716 13.0241 0.831082 11.2114 0.580695L10.9378 2.56188ZM16.8989 2.59377L17.1517 4.57773C19.0903 4.3307 21.0281 4.156 22.9652 4.05353L22.8596 2.05632L22.7539 0.0591109C20.7177 0.166822 18.6817 0.350419 16.6461 0.609816L16.8989 2.59377ZM22.8596 2.05632L22.9652 4.05353C24.98 3.94695 26.0315 4.01952 26.405 4.11902L26.9198 2.1864L27.4346 0.253784C26.3679 -0.0303473 24.7125 -0.0444925 22.7539 0.0591109L22.8596 2.05632ZM26.9198 2.1864L26.3565 4.10544L27.3367 4.39316L27.9 2.47412L28.4633 0.555086L27.4831 0.267367L26.9198 2.1864ZM27.9 2.47412V4.47412H28V2.47412V0.474121H27.9V2.47412Z" fill="#83481D"/>
<path d="M2 10.4741C0.89543 10.4741 0 11.3696 0 12.4741C0 13.5787 0.89543 14.4741 2 14.4741V12.4741V10.4741ZM2.1 12.4741V14.4741H2.15524L2.21039 14.4711L2.1 12.4741ZM26.42 12.1864L27.4483 10.471L27.38 10.4301L27.3088 10.3947L26.42 12.1864ZM26.9 12.4741L25.8717 14.1895L26.3465 14.4741H26.9V12.4741ZM27 14.4741C28.1046 14.4741 29 13.5787 29 12.4741C29 11.3696 28.1046 10.4741 27 10.4741V12.4741V14.4741ZM2 12.4741V14.4741H2.1V12.4741V10.4741H2V12.4741ZM2.1 12.4741L2.21039 14.4711C6.0854 14.2569 8.87609 14.2957 10.6663 14.5431L10.94 12.5619L11.2137 10.5807C9.03058 10.2791 5.92793 10.2595 1.98961 10.4772L2.1 12.4741ZM10.94 12.5619L10.6663 14.5431C12.8273 14.8416 14.9911 14.8533 17.1529 14.5777L16.9 12.5938L16.6471 10.6098C14.8356 10.8407 13.026 10.8311 11.2137 10.5807L10.94 12.5619ZM16.9 12.5938L17.1529 14.5777C19.091 14.3307 21.0285 14.156 22.9657 14.0535L22.86 12.0563L22.7544 10.0591C20.7181 10.1668 18.6824 10.3504 16.6471 10.6098L16.9 12.5938ZM22.86 12.0563L22.9657 14.0535C23.9334 14.0023 24.6595 13.9901 25.167 14.0087C25.4216 14.018 25.5878 14.034 25.6843 14.0484C25.8176 14.0683 25.7173 14.0704 25.5312 13.9781L26.42 12.1864L27.3088 10.3947C26.9293 10.2065 26.5357 10.1312 26.2757 10.0924C25.9789 10.048 25.6518 10.0237 25.313 10.0114C24.6338 9.98654 23.7733 10.0052 22.7544 10.0591L22.86 12.0563ZM26.42 12.1864L25.3917 13.9018L25.8717 14.1895L26.9 12.4741L27.9283 10.7587L27.4483 10.471L26.42 12.1864ZM26.9 12.4741V14.4741H27V12.4741V10.4741H26.9V12.4741Z" fill="#83481D"/>
<path d="M2 20.4741C0.89543 20.4741 0 21.3696 0 22.4741C0 23.5787 0.89543 24.4741 2 24.4741V22.4741V20.4741ZM2.1 22.4741V24.4741H2.15524L2.21039 24.4711L2.1 22.4741ZM10.94 22.5619L10.6663 24.5431L10.94 22.5619ZM26.42 22.1864L27.4483 20.471L27.38 20.4301L27.3088 20.3947L26.42 22.1864ZM26.9 22.4741L25.8717 24.1895L26.3465 24.4741H26.9V22.4741ZM27 24.4741C28.1046 24.4741 29 23.5787 29 22.4741C29 21.3696 28.1046 20.4741 27 20.4741V22.4741V24.4741ZM2 22.4741V24.4741H2.1V22.4741V20.4741H2V22.4741ZM2.1 22.4741L2.21039 24.4711C6.0854 24.2569 8.87609 24.2957 10.6663 24.5431L10.94 22.5619L11.2137 20.5807C9.03058 20.2791 5.92793 20.2595 1.98961 20.4772L2.1 22.4741ZM10.94 22.5619L10.6663 24.5431C12.8273 24.8416 14.9911 24.8533 17.1529 24.5777L16.9 22.5938L16.6471 20.6098C14.8356 20.8407 13.026 20.8311 11.2137 20.5807L10.94 22.5619ZM16.9 22.5938L17.1529 24.5777C19.091 24.3307 21.0285 24.156 22.9656 24.0535L22.86 22.0563L22.7544 20.0591C20.7181 20.1668 18.6824 20.3504 16.6471 20.6098L16.9 22.5938ZM22.86 22.0563L22.9656 24.0535C23.9334 24.0023 24.6595 23.9901 25.167 24.0087C25.4216 24.018 25.5878 24.034 25.6843 24.0484C25.8176 24.0683 25.7173 24.0704 25.5312 23.9781L26.42 22.1864L27.3088 20.3947C26.9293 20.2065 26.5357 20.1312 26.2757 20.0924C25.9789 20.048 25.6518 20.0237 25.313 20.0114C24.6338 19.9865 23.7733 20.0052 22.7544 20.0591L22.86 22.0563ZM26.42 22.1864L25.3917 23.9018L25.8717 24.1895L26.9 22.4741L27.9283 20.7587L27.4483 20.471L26.42 22.1864ZM26.9 22.4741V24.4741H27V22.4741V20.4741H26.9V22.4741Z" fill="#83481D"/>
</svg>
