<svg width="22" height="22" viewBox="0 0 22 22" fill="none" xmlns="http://www.w3.org/2000/svg">
<path d="M10.6667 1.92771C13.494 1.92771 13.8795 1.92771 15.0361 1.92771C16.0643 1.92771 16.5783 2.18474 16.9639 2.31325C17.4779 2.57028 17.8635 2.6988 18.249 3.08434C18.6345 3.46988 18.8916 3.85542 19.0201 4.36948C19.1486 4.75502 19.2771 5.26908 19.4056 6.29719C19.4056 7.45382 19.4056 7.71084 19.4056 10.6667C19.4056 13.6225 19.4056 13.8795 19.4056 15.0361C19.4056 16.0643 19.1486 16.5783 19.0201 16.9639C18.7631 17.4779 18.6345 17.8635 18.249 18.249C17.8635 18.6345 17.4779 18.8916 16.9639 19.0201C16.5783 19.1486 16.0643 19.2771 15.0361 19.4056C13.8795 19.4056 13.6225 19.4056 10.6667 19.4056C7.71084 19.4056 7.45382 19.4056 6.29719 19.4056C5.26908 19.4056 4.75502 19.1486 4.36948 19.0201C3.85542 18.7631 3.46988 18.6345 3.08434 18.249C2.6988 17.8635 2.44177 17.4779 2.31325 16.9639C2.18474 16.5783 2.05623 16.0643 1.92771 15.0361C1.92771 13.8795 1.92771 13.6225 1.92771 10.6667C1.92771 7.71084 1.92771 7.45382 1.92771 6.29719C1.92771 5.26908 2.18474 4.75502 2.31325 4.36948C2.57028 3.85542 2.6988 3.46988 3.08434 3.08434C3.46988 2.6988 3.85542 2.44177 4.36948 2.31325C4.75502 2.18474 5.26908 2.05623 6.29719 1.92771C7.45382 1.92771 7.83936 1.92771 10.6667 1.92771ZM10.6667 0C7.71084 0 7.45382 0 6.29719 0C5.14056 0 4.36948 0.257029 3.72691 0.514057C3.08434 0.771085 2.44177 1.15663 1.7992 1.7992C1.15663 2.44177 0.899599 2.95582 0.514057 3.72691C0.257029 4.36948 0.128514 5.14056 0 6.29719C0 7.45382 0 7.83936 0 10.6667C0 13.6225 0 13.8795 0 15.0361C0 16.1928 0.257029 16.9639 0.514057 17.6064C0.771085 18.249 1.15663 18.8916 1.7992 19.5341C2.44177 20.1767 2.95582 20.4337 3.72691 20.8193C4.36948 21.0763 5.14056 21.2048 6.29719 21.3333C7.45382 21.3333 7.83936 21.3333 10.6667 21.3333C13.494 21.3333 13.8795 21.3333 15.0361 21.3333C16.1928 21.3333 16.9639 21.0763 17.6064 20.8193C18.249 20.5623 18.8916 20.1767 19.5341 19.5341C20.1767 18.8916 20.4337 18.3775 20.8193 17.6064C21.0763 16.9639 21.2048 16.1928 21.3333 15.0361C21.3333 13.8795 21.3333 13.494 21.3333 10.6667C21.3333 7.83936 21.3333 7.45382 21.3333 6.29719C21.3333 5.14056 21.0763 4.36948 20.8193 3.72691C20.5623 3.08434 20.1767 2.44177 19.5341 1.7992C18.8916 1.15663 18.3775 0.899599 17.6064 0.514057C16.9639 0.257029 16.1928 0.128514 15.0361 0C13.8795 0 13.6225 0 10.6667 0Z" fill="#F4ECE6"/>
<path d="M10.6667 5.14056C7.58233 5.14056 5.14056 7.58233 5.14056 10.6667C5.14056 13.751 7.58233 16.1928 10.6667 16.1928C13.751 16.1928 16.1928 13.751 16.1928 10.6667C16.1928 7.58233 13.751 5.14056 10.6667 5.14056ZM10.6667 14.2651C8.73896 14.2651 7.06827 12.7229 7.06827 10.6667C7.06827 8.73896 8.61044 7.06827 10.6667 7.06827C12.5944 7.06827 14.2651 8.61044 14.2651 10.6667C14.2651 12.5944 12.5944 14.2651 10.6667 14.2651Z" fill="#F4ECE6"/>
<path d="M16.3213 6.29719C17.0311 6.29719 17.6064 5.72181 17.6064 5.01205C17.6064 4.30229 17.0311 3.72691 16.3213 3.72691C15.6115 3.72691 15.0361 4.30229 15.0361 5.01205C15.0361 5.72181 15.6115 6.29719 16.3213 6.29719Z" fill="#F4ECE6"/>
</svg>
