<svg width="35" height="35" viewBox="0 0 35 35" fill="none" xmlns="http://www.w3.org/2000/svg">
<path d="M17.5002 17.4998C18.3022 17.4998 18.9889 17.2142 19.5601 16.6431C20.1312 16.0719 20.4168 15.3853 20.4168 14.5832C20.4168 13.7811 20.1312 13.0945 19.5601 12.5233C18.9889 11.9521 18.3022 11.6665 17.5002 11.6665C16.6981 11.6665 16.0114 11.9521 15.4403 12.5233C14.8691 13.0945 14.5835 13.7811 14.5835 14.5832C14.5835 15.3853 14.8691 16.0719 15.4403 16.6431C16.0114 17.2142 16.6981 17.4998 17.5002 17.4998ZM17.5002 28.2186C20.4654 25.4964 22.6651 23.0233 24.0991 20.7993C25.5331 18.5754 26.2502 16.6005 26.2502 14.8748C26.2502 12.2255 25.4055 10.0563 23.7163 8.36702C22.0271 6.67779 19.955 5.83317 17.5002 5.83317C15.0453 5.83317 12.9733 6.67779 11.284 8.36702C9.59478 10.0563 8.75016 12.2255 8.75016 14.8748C8.75016 16.6005 9.46718 18.5754 10.9012 20.7993C12.3352 23.0233 14.5349 25.4964 17.5002 28.2186ZM17.5002 32.0832C13.587 28.7533 10.6642 25.6604 8.73193 22.8045C6.79964 19.9486 5.8335 17.3054 5.8335 14.8748C5.8335 11.229 7.00624 8.32449 9.35173 6.1613C11.6972 3.9981 14.4134 2.9165 17.5002 2.9165C20.587 2.9165 23.3031 3.9981 25.6486 6.1613C27.9941 8.32449 29.1668 11.229 29.1668 14.8748C29.1668 17.3054 28.2007 19.9486 26.2684 22.8045C24.3361 25.6604 21.4134 28.7533 17.5002 32.0832Z" fill="#F4ECE6"/>
</svg>
