<svg width="106" height="94" viewBox="0 0 106 94" fill="none" xmlns="http://www.w3.org/2000/svg">
<path d="M59.2796 12.8035C59.8575 11.8232 61.7402 11.2999 62.8418 11.0894C62.8619 11.0851 62.882 11.0807 62.902 11.0764C63.1631 11.0235 63.4026 10.9554 63.693 10.8772C64.3958 10.7087 65.2916 10.3994 67.6591 10.4998C68.2271 10.4247 68.8407 10.3769 69.4812 10.3738C69.7189 10.3731 69.9519 10.3809 70.1792 10.3962C75.8109 11.2393 76.8828 13.2416 78.6088 14.5472C80.1311 15.9642 81.2807 17.3131 82.3661 18.6023C83.7413 20.0237 84.8781 22.0205 85.3816 23.78C85.42 23.8695 85.4583 23.9612 85.4953 24.0521C86.2276 25.8494 86.5549 27.6691 86.4602 28.6937C86.4216 29.1134 86.3717 29.473 86.3186 29.7949C86.2146 30.6048 86.0712 31.2363 85.9277 31.7814C85.5766 35.6491 84.4438 39.7098 81.4698 43.1201C80.9135 43.7504 80.3096 44.2913 79.6943 44.7557C78.3563 45.7597 77.0069 46.4088 75.7194 46.9318C74.5288 47.4109 73.3763 47.7696 72.2493 48.0791C71.6151 48.3698 71.0192 48.6548 70.4724 48.9062C69.6934 49.2612 69.0037 49.5511 68.4224 49.6912C67.0168 50.0311 65.4134 49.947 64.2532 49.8598C64.0625 49.8459 63.8847 49.8318 63.7196 49.8201C62.8139 49.9662 61.9172 50.1048 61.0255 50.2373C60.9634 50.1886 60.9008 50.1376 60.8373 50.0853C60.045 49.4325 59.1185 49.4768 57.6727 49.5331C57.0439 49.5577 56.3171 49.584 55.4715 49.5588C54.9248 49.5427 54.6378 49.2792 54.4055 49.0642C54.3373 49.001 54.2729 48.9419 54.207 48.8946C53.9823 48.7326 53.7585 48.9229 53.499 49.148C53.162 49.4401 52.7562 49.7914 52.2007 49.5117C50.4155 48.6229 49.7189 49.3444 49.2206 49.8866C49.1416 49.9741 49.0682 50.0571 48.9965 50.1286C48.9497 50.1861 48.904 50.236 48.8574 50.2744C48.5239 50.5487 48.0133 50.3987 47.5519 50.1831C47.1853 50.0065 46.6368 50.4422 46.342 50.9198C46.2282 51.0991 46.0177 51.1951 45.7677 51.324C45.5099 51.4566 45.2078 51.6267 44.962 51.9419C44.3473 52.7418 44.0463 53.2184 43.7952 53.5963C43.7244 53.7051 43.6585 53.8069 43.5933 53.9114C43.3886 54.2401 43.1055 54.6269 42.8186 55.0404C42.4755 55.5337 42.1269 56.0658 41.9102 56.5273C41.4905 56.876 41.06 57.2408 40.6214 57.6187L41.0905 57.0069C40.9334 57.1442 40.8226 57.2287 40.7391 57.2711C40.6536 57.3214 40.5845 57.3241 40.412 57.6586C40.4 57.6817 40.3869 57.706 40.3726 57.7314C40.0306 58.3171 39.4267 58.3438 38.4186 58.5737C37.3827 58.7666 36.0835 58.8465 34.7839 58.6272C33.4865 58.4063 32.2726 57.9171 31.4429 57.1127C30.6313 56.3786 30.3521 55.1777 30.4691 54.4302C30.4729 54.4013 30.4778 54.3714 30.4839 54.3406C30.6415 53.3908 31.28 51.7653 31.8314 50.8036C31.9218 50.7079 32.1268 50.3689 32.2286 50.2855C32.6302 49.6919 33.0517 49.0958 33.5042 48.5013C34.7301 46.8946 36.1907 45.2706 38.1079 43.884C39.4439 42.9187 40.9865 42.0584 42.6658 41.4473C42.8387 41.3843 43.0125 41.3243 43.1872 41.2666C44.4821 40.436 45.9508 39.8108 47.0066 39.5586C47.358 39.4731 47.6682 39.4443 47.9588 39.4461C48.302 39.4583 48.5998 39.5313 48.8702 39.5989C49.1744 39.677 49.4332 39.7488 49.695 39.7168C49.8362 39.6997 50.0243 39.6675 50.2471 39.6301C51.1736 39.4746 52.7017 39.244 54.0665 39.5192C54.6696 39.6407 55.3711 39.8975 56.0356 40.143C56.9806 40.4944 57.8548 40.8204 58.2868 40.6978C59.0415 40.4831 59.9142 40.6119 60.6808 40.7196C61.4116 40.8227 62.0493 40.9059 62.3914 40.6653C62.8015 40.3777 63.1656 40.4613 63.7112 40.5794C64.0895 40.6608 64.5521 40.7588 65.1676 40.7541C65.8757 40.7483 66.3841 40.8734 66.8239 40.9755C67.435 41.1189 67.9096 41.2186 68.497 40.8118C69.1558 40.3584 69.8062 40.0042 70.3723 39.9757C70.6289 39.9635 70.9017 39.8805 71.1794 39.7881C71.5408 39.668 71.9132 39.53 72.2763 39.5263C72.5839 39.5203 72.8842 39.6741 73.1699 39.7971C73.2581 39.8358 73.3428 39.8719 73.4223 39.9008C73.626 39.8046 73.8234 39.7015 74.0072 39.5932C74.0178 39.5406 74.027 39.4835 74.0359 39.4246C74.0791 39.13 74.115 38.7706 74.2136 38.5261C74.3736 38.135 74.6325 38.0935 74.914 38.0115C74.9708 37.9952 75.0271 37.9781 75.0807 37.9576C75.2637 37.8584 75.4398 37.7148 75.5433 37.4882C75.6393 37.2784 75.6774 36.9929 75.6973 36.7077C75.7289 36.2826 75.7192 35.8612 75.8953 35.6163C75.9618 35.5238 76.1416 35.4799 76.3216 35.4279C76.3227 35.4278 76.3237 35.4276 76.3248 35.4275C76.337 35.424 76.3489 35.4203 76.3611 35.4168C76.4377 34.6683 76.4203 33.883 76.3222 33.0967C76.2848 33.0271 76.2475 32.9569 76.2102 32.8874C76.0281 32.5502 75.8358 32.232 75.5604 32.0342C75.3077 31.8528 75.1318 31.4396 74.9297 30.9775C74.8915 30.8728 74.8535 30.7709 74.8147 30.6671C74.6472 30.2206 74.4682 29.8004 74.2566 29.5155C74.133 29.3481 74.2673 29.1629 74.4022 28.973C74.5284 28.7977 74.6547 28.6189 74.5796 28.4944C74.542 28.4324 74.4568 28.3837 74.3672 28.3425C74.2883 28.3061 74.206 28.2759 74.1497 28.2433C74.0974 28.2125 74.1489 28.0943 74.2146 27.9678C74.2551 27.8891 74.3007 27.8062 74.3287 27.7279C74.2114 27.6874 74.1095 27.6781 73.9607 27.6341C73.791 27.5108 73.6236 27.3889 73.4571 27.2673C73.2411 27.2644 73.0115 27.3081 72.7674 27.4112C72.5921 27.4852 72.403 27.5925 72.2091 27.7017C71.9453 27.8505 71.6732 28.0047 71.4175 28.0919C71.2174 28.1598 71.0806 28.1343 71.0753 28.0246C71.0728 27.9734 71.0982 27.9046 71.121 27.8423C71.1471 27.7709 71.1701 27.7073 71.1456 27.6871C71.1278 27.6727 71.0766 27.6933 71.0145 27.718C70.9154 27.7575 70.7872 27.8083 70.7176 27.7507C70.457 27.5349 70.2071 27.2557 69.9715 26.9954C69.7094 26.7057 69.4632 26.4394 69.2323 26.296C68.9737 26.1347 68.7741 25.738 68.6146 25.3944C68.5028 25.1536 68.411 24.9393 68.3342 24.8307C68.2583 24.7232 68.1336 24.7755 68.1101 24.8752C68.0739 24.9908 68.222 25.1842 68.5705 25.0957C68.6379 25.077 68.7651 24.8986 68.9109 24.6672C69.0161 24.5034 69.1333 24.3132 69.2571 24.1341C69.3333 24.1392 69.4155 24.142 69.5029 24.1415C69.4202 24.1393 69.2983 24.1375 69.1528 24.1412C69.1498 24.1688 69.1467 24.197 69.1437 24.2258C69.1437 24.2264 69.1436 24.2271 69.1436 24.2277C69.0645 24.8797 69.0777 25.7548 68.6489 25.321C68.5366 25.2118 68.4199 24.9898 68.3116 24.791C68.2056 24.5958 68.106 24.4227 68.0213 24.4042C67.9241 24.3837 67.8615 24.5399 67.7942 24.7115C67.6993 24.9526 67.6029 25.2225 67.3559 25.0871C67.3389 25.0779 67.3205 25.0678 67.3014 25.0578C67.1195 24.964 66.8473 24.8293 66.4737 24.4991C65.8117 24.636 65.1099 24.808 64.3925 25.0099C63.1959 25.3469 61.9548 25.7658 60.7377 26.2674C60.1452 26.5093 59.3085 26.3819 58.3416 25.9092C57.3775 25.4324 56.3595 24.6572 55.5307 23.6647C54.701 22.6745 54.1316 21.5186 53.9794 20.3982C53.8265 19.28 54.1126 18.3014 54.722 17.7006C55.7157 16.7234 56.7621 15.7912 57.8928 14.9178C57.9443 14.8583 57.9969 14.7995 58.0502 14.7424C58.4472 14.3173 58.7378 13.7549 59.0558 13.1904C59.1288 13.0608 59.2027 12.9312 59.2796 12.8035Z" fill="#FC6D30"/>
<path d="M33.7975 3.6432C34.5998 4.09563 34.6884 5.51912 34.6605 6.29967C34.6605 6.31396 34.6604 6.32826 34.6604 6.34256C34.6564 6.52761 34.6729 6.70112 34.6896 6.90443C34.7217 7.38654 34.7942 8.07017 34.3835 9.46932C34.3858 9.60458 34.3857 9.74011 34.3831 9.87582C34.3783 10.1421 34.3643 10.4097 34.34 10.6789C33.9969 15.3492 30.7757 19.0331 28.3271 20.724C28.3029 20.7551 28.2783 20.7867 28.2533 20.8187C27.7738 21.4361 27.1679 22.1498 26.6101 22.3694C25.8929 22.6577 25.3674 22.7734 24.9361 22.8528C22.9929 23.9311 21.1325 24.8653 19.4433 25.9707C18.9088 26.3203 18.3996 26.6793 17.9048 27.0644C17.4514 27.4172 17.0101 27.7835 16.5755 28.165C16.5363 28.2311 16.4982 28.2979 16.461 28.3648L17.3602 27.4236C17.3149 27.6863 17.2876 27.9449 17.2641 28.1867C17.2231 28.6163 17.1865 29.0046 17.0858 29.267C16.8371 29.9074 16.2399 30.4214 15.7989 30.8152C15.7265 30.8799 15.6584 30.941 15.5969 30.9982C15.438 31.4229 15.2849 31.8595 15.1429 32.2914C15.0833 32.2918 15.0217 32.2913 14.9586 32.2906C14.1727 32.2815 13.9426 32.7033 13.5999 33.3667C13.451 33.6555 13.2792 33.9932 13.0342 34.363C12.8761 34.6018 12.566 34.6137 12.3135 34.6219C12.2392 34.6245 12.1697 34.627 12.1105 34.6352C11.9079 34.6629 12.017 34.8547 12.1472 35.0799C12.3154 35.3737 12.5262 35.7102 12.1238 35.8503C10.8473 36.2894 11.2753 36.9588 11.6092 37.4349C11.7071 37.5754 11.7958 37.7021 11.8296 37.8092C11.9398 38.1536 11.5764 38.4143 11.1675 38.5652C10.8431 38.6835 10.9066 39.2115 11.0837 39.655C11.1514 39.8205 11.0919 39.9872 11.0224 40.1855C10.9523 40.3857 10.8681 40.6287 10.9123 40.919C11.0205 41.6647 11.0791 42.0431 11.1249 42.347C11.1388 42.4316 11.1505 42.5125 11.164 42.5936C11.2076 42.8462 11.2202 43.1409 11.2386 43.4357C11.2617 43.7829 11.2938 44.1319 11.3922 44.3924C11.293 44.574 11.1913 44.7623 11.0982 44.9151L11.158 44.5394C11.0187 44.6711 10.9069 44.5604 10.7461 44.4223C10.6227 44.3054 9.99095 44.3167 9.11365 44.7477C8.22878 45.1628 7.19204 45.9165 6.05992 46.5882C4.92956 47.2584 3.73158 47.7624 2.62831 47.7033C1.53258 47.6603 0.665399 47.0015 0.422213 46.1533C0.102338 45.074 0.0104241 43.9853 5.72205e-06 43.1186C0.0263109 43.0595 0.0207987 42.8572 0.0507421 42.7999C0.0560622 42.4046 0.0714173 42.0277 0.0971799 41.6569C0.182905 40.4174 0.376673 39.2692 0.738678 38.1708C0.991212 37.4067 1.28898 36.6681 1.62364 35.9497C1.65822 35.8755 1.69369 35.801 1.72942 35.7262C1.66334 34.9967 1.64759 34.2581 1.73124 33.791C1.80345 33.3974 2.07396 33.2103 2.30655 33.0494C2.46673 32.9385 2.60951 32.8396 2.65571 32.7018C2.68087 32.627 2.70685 32.5206 2.73923 32.3915C2.87036 31.8647 3.10591 30.9723 3.75751 30.3773C4.04603 30.1134 4.48362 29.8642 4.90296 29.6319C5.50181 29.3006 6.06425 29.003 6.0948 28.7224C6.15241 28.2213 6.55537 27.8331 6.91586 27.4938C7.25791 27.1729 7.55889 26.8984 7.48668 26.5917C7.39743 26.2301 7.60733 26.0893 7.92047 25.882C8.13809 25.7379 8.39993 25.5695 8.65538 25.2668C8.94956 24.9188 9.27444 24.7561 9.55374 24.6144C9.94579 24.4172 10.2358 24.2793 10.2228 23.7551C10.2088 23.303 10.2702 22.8801 10.45 22.5913C10.6564 22.4284 11.0722 21.7763 11.3179 21.6828C11.3847 21.6251 11.4564 21.58 11.5334 21.5498C11.6954 21.4864 11.8383 21.3612 11.9848 21.2323C12.1758 21.0639 12.3877 20.8783 12.6586 20.8215C12.8823 20.7743 13.1718 20.8731 13.4274 20.9608C13.5076 20.9879 13.5858 21.0123 13.657 21.0319C13.7861 20.9271 13.9127 20.822 14.0363 20.7156C14.0316 20.6669 14.0253 20.6139 14.0189 20.5591C13.9873 20.2839 13.9455 19.9486 14.0331 19.6958C14.1704 19.2968 14.4861 19.229 14.8399 19.1411C15.1125 19.0748 15.3853 19.0144 15.5933 18.79C15.7345 18.6373 15.8479 18.4109 15.9559 18.1892C16.1232 17.8545 16.2833 17.5262 16.5172 17.457C16.6078 17.4287 16.768 17.5043 16.9272 17.5796C16.9281 17.5801 16.9289 17.5807 16.9298 17.5812C16.9406 17.5863 16.9513 17.5912 16.962 17.5963C17.3127 17.1441 17.6445 16.6845 17.9656 16.2147C17.9739 16.1525 17.9827 16.0906 17.9913 16.0297C18.0303 15.7346 18.0743 15.4402 17.9976 15.1456C17.9133 14.8276 18.0884 14.4392 18.2431 14.0464C18.3533 13.781 18.4455 13.523 18.4818 13.259C18.5008 13.1069 18.6959 13.1459 18.897 13.1851C19.0855 13.2207 19.2823 13.2529 19.3352 13.1394C19.3617 13.0824 19.3558 12.9893 19.3476 12.891C19.3419 12.8029 19.3348 12.7103 19.3476 12.6348C19.3602 12.5639 19.5125 12.5318 19.7093 12.4828C19.8308 12.4526 19.9666 12.4187 20.0921 12.3726C20.2188 12.064 20.3195 11.7764 20.3999 11.5088C20.3148 11.379 20.1873 11.2331 20.0084 11.067C19.8802 10.9478 19.7205 10.8142 19.557 10.6778C19.3342 10.4928 19.1017 10.3046 18.921 10.1471C18.7799 10.0239 18.7317 9.96252 18.8057 9.99013C18.8402 10.003 18.9005 10.0346 18.9551 10.0629C19.0177 10.0954 19.0735 10.1241 19.0758 10.1171C19.0773 10.1121 19.0383 10.0807 18.9908 10.0432C18.9151 9.9831 18.8166 9.90658 18.8224 9.88874C18.8442 9.82229 18.9119 9.78438 18.9734 9.75272C19.0417 9.71784 19.1022 9.68934 19.0825 9.64272C19.0602 9.59095 19.2459 9.62506 19.4349 9.64135C19.5665 9.65348 19.6988 9.65697 19.7574 9.64022C19.8148 9.62362 19.7228 9.56739 19.6304 9.52043C19.5197 9.46248 19.4095 9.41816 19.5743 9.40415C19.6078 9.40118 19.8076 9.41591 20.0582 9.42754C20.2357 9.43585 20.439 9.44248 20.6269 9.44169C20.6313 9.39235 20.6384 9.34006 20.6475 9.28331C20.6521 9.25791 20.6574 9.23207 20.6631 9.20573C20.636 9.20258 20.6084 9.19941 20.5802 9.1963C20.5796 9.19625 20.5789 9.1962 20.5783 9.19614C19.9419 9.11588 19.0715 9.10751 19.5844 8.98996C19.7144 8.95687 19.9561 8.91954 20.1733 8.88225C20.3865 8.84577 20.5768 8.8092 20.6144 8.77913C20.6569 8.74489 20.5211 8.72407 20.3735 8.70697C20.166 8.68116 19.9353 8.66719 20.1323 8.57359C20.1457 8.56712 20.1605 8.56005 20.1752 8.55273C20.3146 8.48304 20.5195 8.37626 20.9368 8.20106C21.0011 7.94277 21.0621 7.64911 21.1081 7.32445C21.1854 6.78379 21.2195 6.15657 21.1787 5.48772C21.1614 5.16299 21.5328 4.6049 22.2223 3.87922C22.9144 3.15511 23.865 2.32995 24.9399 1.61174C26.0147 0.894434 27.1497 0.341809 28.1575 0.114564C29.1622 -0.11507 29.9482 0.00876355 30.3346 0.413472C30.961 1.0714 31.5686 1.79689 32.1208 2.61205C32.1643 2.6488 32.207 2.68638 32.2482 2.72504C32.5535 3.01013 33.0171 3.22541 33.4803 3.46924C33.5868 3.52559 33.6934 3.58329 33.7975 3.6432Z" fill="#FC6D30"/>
<path d="M99.6213 79.7383C99.1768 80.3577 98.2823 80.128 97.7618 80.0134C97.7524 80.0115 97.743 80.0096 97.7336 80.0077C97.6118 79.9802 97.4953 79.9771 97.3569 79.9747C97.0403 79.969 96.6023 79.9596 95.6411 79.6334C95.3701 79.6679 95.0944 79.6974 94.8237 79.7199C92.1213 79.9447 89.3097 79.8612 86.43 79.7291C86.2371 79.7034 86.0489 79.6802 85.8573 79.6614C85.8325 79.6695 85.8073 79.6778 85.782 79.6863C85.2884 79.8483 84.7237 80.0952 84.2578 80.0227C83.6647 79.9282 83.1937 79.8433 82.7929 79.7729C80.8268 80.122 78.5531 81.0712 76.4074 82.3143C75.7287 82.7082 75.0696 83.1266 74.4158 83.5809C73.8112 84.0011 73.2244 84.434 72.6375 84.8867C72.3602 85.2435 72.1167 85.6072 71.8858 85.9473C71.5694 86.4196 71.2737 86.8481 70.9852 87.1193C70.3394 87.7235 69.4408 88.1184 68.697 88.4238C68.6085 88.4643 68.5221 88.5027 68.4383 88.5394C68.285 88.6065 68.1401 88.6677 68.0069 88.7242C67.3761 89.2191 66.7226 89.6851 66.0504 90.1186C65.98 90.0958 65.9086 90.0709 65.8361 90.0448C64.9338 89.7153 64.2256 90.0513 63.0555 90.4815C62.5476 90.6666 61.9539 90.8651 61.24 91.0099C60.7792 91.1026 60.4812 90.8937 60.2434 90.723C60.1733 90.6726 60.108 90.6253 60.0451 90.5894C59.8296 90.4662 59.6859 90.686 59.5079 90.9446C59.2791 91.2793 58.985 91.6817 58.4687 91.4634C56.8503 90.7549 56.3365 91.4467 55.8819 91.9936C55.7517 92.1521 55.6319 92.2948 55.5035 92.3787C55.0861 92.6517 54.4431 92.4562 53.9697 92.1523C53.5922 91.9133 52.8783 92.1858 52.3214 92.5077C52.1122 92.63 51.8258 92.6318 51.4929 92.6288C51.1465 92.6258 50.7493 92.6173 50.3178 92.7356C49.2267 93.0326 48.6378 93.1494 48.168 93.2452C48.0334 93.272 47.9084 93.2958 47.7837 93.3207C47.7618 93.3251 47.7395 93.3294 47.7171 93.3336C47.4173 93.3743 46.5913 93.0459 46.2912 93.0075C45.7004 92.9047 44.9888 92.6746 44.4233 92.4715C43.6963 92.2092 43.2142 92.0503 42.8467 92.023C42.8006 91.9841 42.7558 91.9459 42.7115 91.908C42.0926 91.3877 41.1105 90.6501 40.2747 89.9254C39.8016 89.5201 39.6208 88.707 39.8038 87.6652C39.9862 86.622 40.5091 85.4417 41.2379 84.3445C41.9681 83.2478 42.8478 82.3072 43.672 81.6792C44.498 81.0533 45.1946 80.7927 45.653 80.9447C46.4973 81.2332 47.2638 81.4262 48.3224 81.8285C48.4419 81.875 48.5588 81.9214 48.6721 81.9667C49.1105 82.1423 49.4953 82.3016 49.7459 82.3811C50.0021 82.4638 50.1093 82.4648 50.2081 82.4711L48.7689 82.142C49.1946 82.148 49.6203 82.1626 50.0387 82.1888C50.8399 82.239 51.63 82.2951 52.4141 82.348C52.4947 82.3535 52.5758 82.3592 52.6561 82.3646C53.31 82.0329 53.9267 81.7065 54.3554 81.5696C54.7094 81.4569 54.9826 81.6044 55.222 81.7282C55.3864 81.8133 55.5333 81.8871 55.6688 81.856C55.7415 81.8392 55.8396 81.8066 55.9564 81.7664C56.439 81.6032 57.2075 81.306 57.9886 81.4419C58.3374 81.5031 58.7729 81.6737 59.1998 81.8202C59.808 82.0318 60.4016 82.1891 60.5948 81.9974C60.9316 81.6633 61.437 81.6175 61.8913 81.5509C62.3223 81.4895 62.7025 81.411 62.7676 81.1184C62.8436 80.7693 63.0667 80.7583 63.4098 80.7212C63.4401 80.7179 63.4714 80.7144 63.5035 80.7104C63.777 80.6464 64.0989 80.5595 64.4572 80.3732C64.9428 80.1189 65.3546 80.06 65.7133 80.0038C66.2201 79.9232 66.5886 79.8705 66.8447 79.3241C67.1168 78.7257 67.4899 78.2051 67.9383 78.0236C68.1445 77.9396 68.3375 77.791 68.5397 77.6352C68.8152 77.4235 69.0901 77.2115 69.4332 77.1206C69.7144 77.0468 70.0409 77.1313 70.3321 77.2047C70.4239 77.2269 70.5117 77.2481 70.5931 77.2637C70.7704 77.1367 70.9428 77.0115 71.116 76.8825C71.1219 76.8284 71.1267 76.7697 71.132 76.7088C71.1593 76.4031 71.1883 76.0313 71.3513 75.7444C71.6129 75.2879 72.036 75.1726 72.4847 75.0531C72.8356 74.9591 73.1987 74.8645 73.5225 74.5982C73.7423 74.4173 73.954 74.1545 74.1718 73.8917C74.4908 73.5041 74.8209 73.1198 75.164 73.0233C75.2913 72.9878 75.4677 73.0688 75.6413 73.1508C75.6422 73.1514 75.6432 73.152 75.6441 73.1526C75.6558 73.1582 75.6675 73.1635 75.6793 73.1691C76.3238 72.6395 76.9937 72.1046 77.7111 71.5788C77.7601 71.5075 77.8089 71.4372 77.8607 71.3664C78.111 71.0218 78.3649 70.6914 78.4804 70.3417C78.6008 69.9643 79.1669 69.5236 79.8128 69.088C80.2367 68.8011 80.6924 68.5174 81.0594 68.2338C81.2743 68.0676 81.5558 68.1576 81.8384 68.2566C82.1025 68.349 82.3682 68.4485 82.6067 68.3491C82.7257 68.2994 82.8443 68.2013 82.9733 68.0974C83.0865 68.0061 83.2093 67.9098 83.3422 67.84C83.4653 67.7752 83.7824 67.8036 84.1744 67.8542C84.3438 67.8759 84.5288 67.9013 84.722 67.9243C84.7892 67.9367 84.8575 67.9483 84.9264 67.9585C85.4885 67.7735 86.0381 67.5971 86.6037 67.4282C86.7036 67.2684 86.7815 67.068 86.8311 66.8175C86.8668 66.6378 86.8889 66.4257 86.9127 66.2088C86.947 65.9133 86.9828 65.6079 87.0545 65.3589C87.1106 65.1642 87.1954 65.0786 87.2683 65.1469C87.3023 65.1788 87.3335 65.2432 87.3617 65.3013C87.3941 65.3679 87.4228 65.4272 87.448 65.4222C87.4662 65.4184 87.4789 65.3667 87.4947 65.304C87.5199 65.2038 87.5529 65.0745 87.6261 65.0608C87.8935 65.0103 88.2248 65.009 88.5372 65.0106C88.8835 65.0125 89.2264 65.0147 89.4936 64.9467C89.7904 64.8706 90.2386 65.006 90.6934 65.1426C91.0062 65.2382 91.3199 65.3343 91.588 65.3601C91.851 65.3854 92.0918 65.2593 92.3494 65.135C92.6532 64.9864 92.934 64.8452 93.2047 64.9843C93.26 65.0125 93.3421 65.2063 93.4439 65.449C93.516 65.621 93.5984 65.8177 93.6878 65.998C94.0056 65.9717 94.334 65.9542 94.6587 65.9457C94.6681 65.9178 94.6778 65.8894 94.6874 65.8604C94.6876 65.8597 94.6877 65.8591 94.6879 65.8584C94.8977 65.2046 95.2297 64.3078 95.7739 64.7956C95.9181 64.9193 96.0169 65.1581 96.1051 65.373C96.1916 65.5841 96.2681 65.7732 96.366 65.8085C96.4787 65.8485 96.5926 65.71 96.7328 65.5589C96.9257 65.347 97.1412 65.1112 97.3709 65.3125C97.3866 65.3262 97.4031 65.3413 97.4211 65.3564C97.5949 65.4993 97.8487 65.7115 98.098 66.1498C98.8202 66.2473 99.5414 66.3766 100.274 66.5359C101.518 66.8057 102.738 67.1381 104.143 67.6301C104.825 67.8719 105.496 68.6379 105.78 69.7599C106.094 70.8925 105.794 72.1901 105.112 73.2849C104.433 74.3854 103.874 75.507 103.549 76.4249C103.207 77.3344 102.943 77.8908 102.618 77.9865C102.094 78.1405 101.409 78.3224 100.71 78.5147C100.673 78.5405 100.634 78.5655 100.596 78.5889C100.325 78.7635 100.058 79.1246 99.8011 79.4888C99.7418 79.5725 99.6786 79.6565 99.6213 79.7383Z" fill="#FC6D30"/>
</svg>
