<svg width="265" height="303" viewBox="0 0 265 303" fill="none" xmlns="http://www.w3.org/2000/svg">
<path d="M13.0492 59.6803C15.2471 64.296 17.5582 70.9906 18.7607 78.4219C20.042 90.8289 18.067 97.7418 18.2569 104.972C18.2252 106.921 18.2144 108.757 18.216 110.412C18.2166 110.638 18.2175 110.87 18.2185 111.094C18.2286 114.02 18.3008 116.809 18.4292 120.057C18.7537 126.788 19.0177 135.664 20.9054 152.007C21.2033 154.462 21.5546 157.09 21.9759 159.906C23.0803 166.134 24.3963 172.336 25.9119 178.48C27.6416 185.484 29.6317 192.415 31.9227 199.191C35.7163 210.472 40.4407 220.996 46.6031 230.995C52.0306 239.877 58.279 248.237 65.309 255.828C76.2291 267.625 89.2252 277.542 103.597 284.013C112.84 288.362 126.219 286.512 140.478 285.863C149.064 285.507 157.637 284.688 166.068 283.327C166.913 283.176 167.77 283.017 168.629 282.85C174.014 281.805 179.772 280.44 185.197 278.663C194.274 275.7 203.309 265.929 209.711 259.587C212.121 257.149 214.371 254.822 216.512 252.613C224.231 244.449 229.277 236.712 233.426 230.398C235.467 227.086 237.432 223.709 239.294 220.302C244.372 211.102 247.881 201.468 250.295 191.02C254.036 175.588 253.853 159.382 247.95 145.018C244.716 137.105 239.192 129.495 233.373 122.103C226.608 113.582 218.88 105.576 210.793 98.0188C208.424 95.8112 206.033 93.6713 203.581 91.593C193.3 82.867 182.102 75.4224 169.744 71.3944C166.599 70.3605 163.369 69.6864 160.078 69.3727C148.705 68.2173 137.871 71.7428 125.642 76.3133C122.338 77.3929 119.118 78.6335 116.022 80.0712C110.908 82.5473 106.351 85.512 102.499 88.8627C100.475 90.6242 98.6167 92.6273 96.8918 94.7212C90.1092 103.102 85.2711 112.216 81.1229 119.581C79.6205 122.289 78.1013 125.065 76.5547 127.893C72.0151 136.239 68.6709 146.192 65.6924 155.685C63.5911 162.338 62.3823 168.872 61.7954 174.781C61.5266 177.457 61.3769 180.005 61.3037 182.377C61.26 186.778 61.4554 191.221 61.7943 195.704C62.3694 203.604 65.6315 211.187 70.434 218.178C70.8504 218.922 71.2839 219.67 71.7393 220.428C72.9297 222.408 74.3203 224.435 75.9268 226.541C81.5303 233.8 89.931 241.885 104.545 247.356C105.282 247.63 106.033 247.886 106.808 248.127C115.323 250.831 126.204 251.279 139.207 249.4C145.268 248.534 149.3 247.897 152.483 247.534C153.594 247.41 154.567 247.278 155.492 247.127C156.465 246.968 157.376 246.789 158.287 246.565C161.416 245.792 164.491 244.23 167.812 241.962C171.123 239.703 174.621 236.742 179.041 232.806C180.272 231.717 181.538 230.491 182.845 229.107C189.865 221.48 193.467 213.337 196.266 206.962C199.748 198.112 198.999 191.174 198.608 185.862C198.353 183.227 198.013 180.834 197.672 178.377C197.382 176.289 197.05 173.969 196.66 171.513C195.834 165.671 192.447 159.067 188.857 153.895C186.092 149.662 179.74 143.147 173.261 136.548C171.371 134.6 169.342 132.885 167.349 131.468C164.367 129.334 160.172 126.684 154.542 124.44C152.991 123.817 151.331 123.217 149.571 122.645C146.772 121.635 142.092 122.495 137.156 124.926C131.703 127.592 127.056 130.835 122.946 133.618C115.679 138.746 112.813 144.475 110.254 149.52C109.431 151.222 108.698 152.889 107.997 154.576C107.83 154.981 107.668 155.387 107.512 155.794C105.068 162.04 103.394 170.499 103.421 179.264C103.413 184.409 103.93 189.648 104.865 194.42C104.778 195.171 107.779 198.187 111.102 199.893C111.984 200.434 112.926 200.965 113.916 201.496C120.024 204.918 128.478 204.35 136.906 201.297C139.943 200.63 143.802 194.444 147.07 187.528C148.033 185.684 148.555 182.679 148.312 180.553C148.273 180.181 148.215 179.85 148.161 179.616C148.081 179.178 147.907 178.523 145.798 177.219C145.059 176.743 144.665 176.6 145.075 176.638C145.254 176.643 145.519 176.609 145.593 176.563C145.676 176.518 145.59 176.49 145.398 176.516L146.308 176.145C141.364 178.187 136.656 179.743 132.491 180.717C128.895 181.562 125.811 181.93 123.629 181.967L124.019 181.81C122.011 181.785 119.993 182.627 119.338 181.811C118.763 181.125 118.664 179.164 121.548 176.603C121.598 176.58 121.749 176.518 121.802 176.501C123.66 175.2 126.098 173.765 129.059 172.015C132.483 170.001 136.468 167.67 140.831 165.095C140.978 165.024 141.422 164.838 141.577 164.79C142.932 164.261 145.088 163.747 147.315 164.106C149.517 164.461 150.923 165.215 152.013 165.724C155.116 167.134 159.841 170.511 161.319 175.881C161.62 176.898 161.812 177.873 161.941 178.821C162.556 184.028 161.876 188.745 159.697 193.582C156.192 200.34 153.337 210.01 141.945 214.927C131.794 218.855 118.599 220.999 106.894 214.933C104.944 213.934 102.932 212.826 100.92 211.491C96.8694 208.679 91.6268 204.804 90.0099 197.071C87.1608 181.146 87.8251 164.291 94.5291 148.659C98.5026 139.405 104.425 128.992 114.234 122.396C114.551 122.178 114.87 121.964 115.193 121.753C125.265 116.054 135.435 105.683 153.804 109.739C162.194 112.463 170.868 116.671 177.969 122.947C179.702 124.463 181.339 126.076 182.879 127.776C182.929 127.832 182.979 127.887 183.03 127.943C194.465 139.416 208.685 153.555 210.874 169.294C210.88 169.333 210.887 169.372 210.893 169.412C212.599 179.747 212.596 187.683 211.862 194.552C211.337 199.289 210.469 203.541 209.106 207.882C208.747 209.015 208.283 210.35 207.649 211.856C207.087 213.191 206.443 214.698 205.701 216.355C202.446 223.341 197.879 233.674 188.005 242.781C180.631 249.607 170.367 256.481 159.276 259.095C157.832 259.455 156.343 259.765 154.819 260.018C146.5 261.392 136.643 262.933 126.891 262.895C117.28 262.933 107.757 261.206 100.491 258.278C95.7445 256.411 91.894 254.434 89.165 252.974C80.9311 248.635 72.8984 241.882 66.7162 234.234C64.012 230.923 61.466 227.466 59.252 223.921C52.9631 214.171 50.1723 203.438 49.6824 196.514C49.6117 195.773 49.5434 195.078 49.476 194.434C48.7547 187.134 48.7033 180.722 49.8823 171.26C50.5811 166.006 51.7208 159.784 54.104 152.175C54.6671 150.389 55.2688 148.49 55.9216 146.489C59.3113 136.084 62.6453 128.445 66.2699 122.233C66.6971 121.505 67.1108 120.803 67.5228 120.104C72.7978 111.273 76.6407 104.567 83.1354 94.6105C86.5228 89.5469 90.4474 84.4617 95.3813 80.2324C100.974 75.4405 107.132 71.9688 112.654 69.6146C115.603 68.3522 118.856 67.1177 122.3 65.9995C123.988 65.4479 125.93 64.7087 127.932 63.9856C135.122 61.3222 143.451 58.9704 151.335 58.6204C157.829 58.2962 163.262 59.2444 167.807 60.5661C169.234 60.9817 170.58 61.4365 171.857 61.9117C172.156 62.0037 172.455 62.0985 172.755 62.1964C177.207 63.6479 181.528 65.47 185.673 67.5795C186.41 67.8955 187.185 68.2359 187.987 68.6016C192.011 70.4362 196.861 72.9665 202.343 76.7759C208.395 80.9918 213.442 85.3831 218.243 89.9426C220.312 91.9131 222.341 93.9212 224.371 95.9936C229.592 101.344 234.866 107.058 240.643 113.971C241.019 114.423 241.4 114.885 241.782 115.352C245.342 119.711 249.279 124.643 252.796 130.028C254.984 133.383 257.003 136.933 258.588 140.591C261.12 146.403 262.637 152.092 263.366 156.605C263.809 159.335 263.892 161.719 263.887 164.056C263.886 164.066 263.886 164.076 263.886 164.087C263.885 164.245 263.884 164.404 263.883 164.563C264.767 174.358 263.887 184.189 261.844 193.636C260.252 201.118 258.107 208.741 255.118 216.004C254.578 217.426 254.004 218.851 253.409 220.25C252.519 222.343 251.584 224.379 250.641 226.327C248.543 230.669 246.515 234.562 245.075 237.438C242.785 241.857 236.851 252.512 227.716 262.962C227.599 263.093 227.482 263.225 227.365 263.356C221.74 269.666 215.804 276.311 210.221 281.583C206.96 284.658 203.363 287.271 199.184 289.544C196.423 291.037 193.395 292.377 189.994 293.425C188.774 293.796 187.534 294.168 186.265 294.55C184.104 295.201 181.778 295.903 179.295 296.585C177.105 297.187 174.79 297.774 172.351 298.301C170.077 298.792 164.993 299.611 158.453 300.273C154.412 300.685 149.82 301.039 145.001 301.277C143.771 301.373 142.537 301.46 141.3 301.538C130.573 302.11 119.026 304.309 105.971 301.91C102.952 301.489 100.27 300.892 98.1099 300.377C97.5926 300.254 97.0964 300.135 96.6122 300.016C95.778 299.836 94.9801 299.677 94.1737 299.509C92.5255 299.163 90.8164 298.776 88.5838 297.968C86.8384 297.338 84.8904 296.369 83.6803 295.552C83.1213 295.175 82.7122 294.831 82.351 294.523C81.9373 294.17 81.5634 293.849 81.063 293.546C80.7028 293.328 80.2942 293.153 79.79 292.931C78.995 292.582 77.9518 292.117 76.5204 291.173C71.1917 287.669 65.4917 283.22 60.2944 278.475C56.9511 275.432 53.8126 272.288 50.9999 269.276C48.9474 267.079 47.0691 264.961 45.4012 263.029C40.9623 257.924 35.3163 250.095 30.4744 241.823C30.3505 241.613 30.227 241.402 30.1038 241.191C26.8518 235.641 23.9107 229.846 21.6027 224.784C19.2433 219.642 16.9046 214.258 14.8776 209.007C14.4145 207.809 13.9724 206.634 13.5416 205.453C11.707 200.427 10.1801 195.584 9.15996 191.271C8.90631 190.197 8.79749 188.804 8.68053 187.063C8.59678 185.825 8.50908 184.411 8.36648 182.809C6.71299 176.105 5.30605 169.343 4.15121 162.531C4.07474 162.298 3.99664 162.056 3.91798 161.814C3.91648 161.81 3.91496 161.807 3.91345 161.803C3.25141 159.765 2.51878 157.435 1.8425 154.732C0.70977 150.203 -0.265721 144.646 -0.445447 137.809C-0.516315 135.039 -0.326745 133.278 -0.152975 131.696C0.0194931 130.145 0.179498 128.759 0.113582 126.754C0.0393188 124.476 -0.271914 121.802 -0.573083 118.875C-0.996188 114.769 -1.40048 110.159 -1.12176 105.502C-1.11057 105.315 -1.09858 105.121 -1.08609 104.922C-1.07731 104.776 -1.06821 104.627 -1.05891 104.477C-0.861033 101.047 -0.363581 95.8779 0.549152 91.107C0.837161 87.2552 1.10736 83.7179 0.744043 81.2602C-0.573939 72.0094 -3.91385 63.012 -8.75435 54.6819C-11.8799 49.2908 -15.6113 44.1703 -19.7789 39.3353C-29.2318 28.2366 -38.9811 17.32 -50.5585 15.4628C-52.7955 15.1137 -54.9815 14.7927 -57.2153 14.4889C-68.463 12.9423 -79.2687 11.5213 -87.2397 10.3734C-95.2643 9.17237 -99.5498 8.46624 -100.212 7.02977C-100.767 5.24841 -95.7965 2.47418 -87.3696 1.14948C-78.8933 -0.26035 -67.3533 -0.387688 -55.5839 0.846938C-53.2467 1.09004 -50.962 1.35063 -48.6266 1.6403C-29.4313 4.58938 -18.2119 18.649 -8.32257 29.1414C-6.9942 30.5935 -5.71808 32.0509 -4.45329 33.5672C-3.76353 34.3614 -3.06251 35.1938 -2.39572 36.009C2.62236 42.1585 6.97589 48.2759 10.646 54.9686C11.4868 56.5052 12.2891 58.0722 13.0492 59.6803Z" fill="#A0D8E0"/>
</svg>
