<svg width="106" height="94" viewBox="0 0 106 94" fill="none" xmlns="http://www.w3.org/2000/svg">
<path d="M59.2796 12.8037C59.8575 11.8233 61.7402 11.3 62.8418 11.0896C62.8619 11.0852 62.882 11.0808 62.902 11.0765C63.1631 11.0237 63.4026 10.9555 63.693 10.8773C64.3958 10.7088 65.2916 10.3995 67.6591 10.4999C68.2271 10.4248 68.8407 10.377 69.4812 10.374C69.7189 10.3732 69.9519 10.3811 70.1792 10.3963C75.8109 11.2394 76.8828 13.2417 78.6088 14.5473C80.1311 15.9643 81.2807 17.3132 82.3661 18.6024C83.7413 20.0238 84.8781 22.0206 85.3816 23.7801C85.42 23.8696 85.4583 23.9613 85.4953 24.0522C86.2276 25.8495 86.5549 27.6692 86.4602 28.6938C86.4216 29.1135 86.3717 29.4732 86.3186 29.795C86.2146 30.6049 86.0712 31.2364 85.9277 31.7816C85.5766 35.6493 84.4438 39.7099 81.4698 43.1202C80.9135 43.7505 80.3096 44.2914 79.6943 44.7558C78.3563 45.7599 77.0069 46.409 75.7194 46.9319C74.5288 47.411 73.3763 47.7697 72.2493 48.0792C71.6151 48.37 71.0192 48.6549 70.4724 48.9063C69.6934 49.2613 69.0037 49.5512 68.4224 49.6914C67.0168 50.0312 65.4134 49.9471 64.2532 49.8599C64.0625 49.846 63.8847 49.832 63.7196 49.8202C62.8139 49.9663 61.9172 50.1049 61.0255 50.2374C60.9634 50.1887 60.9008 50.1377 60.8373 50.0854C60.045 49.4326 59.1185 49.4769 57.6727 49.5332C57.0439 49.5578 56.3171 49.5841 55.4715 49.5589C54.9248 49.5428 54.6378 49.2793 54.4055 49.0643C54.3373 49.0011 54.2729 48.942 54.207 48.8947C53.9823 48.7328 53.7585 48.923 53.499 49.1481C53.162 49.4402 52.7562 49.7915 52.2007 49.5118C50.4155 48.6231 49.7189 49.3445 49.2206 49.8867C49.1416 49.9742 49.0682 50.0572 48.9965 50.1287C48.9497 50.1862 48.904 50.2361 48.8574 50.2746C48.5239 50.5488 48.0133 50.3988 47.5519 50.1832C47.1853 50.0066 46.6368 50.4423 46.342 50.9199C46.2282 51.0992 46.0177 51.1952 45.7677 51.3241C45.5099 51.4568 45.2078 51.6268 44.962 51.9421C44.3473 52.7419 44.0463 53.2185 43.7952 53.5965C43.7244 53.7052 43.6585 53.807 43.5933 53.9116C43.3886 54.2402 43.1055 54.6271 42.8186 55.0405C42.4755 55.5338 42.1269 56.0659 41.9102 56.5274C41.4905 56.8761 41.06 57.2409 40.6214 57.6188L41.0905 57.007C40.9334 57.1443 40.8226 57.2288 40.7391 57.2712C40.6536 57.3215 40.5845 57.3242 40.412 57.6588C40.4 57.6818 40.3869 57.7061 40.3726 57.7315C40.0306 58.3172 39.4267 58.3439 38.4186 58.5738C37.3827 58.7668 36.0835 58.8466 34.7839 58.6273C33.4865 58.4064 32.2726 57.9172 31.4429 57.1129C30.6313 56.3787 30.3521 55.1778 30.4691 54.4304C30.4729 54.4015 30.4778 54.3716 30.4839 54.3407C30.6415 53.3909 31.28 51.7654 31.8314 50.8037C31.9218 50.708 32.1268 50.369 32.2286 50.2857C32.6302 49.6921 33.0517 49.0959 33.5042 48.5014C34.7301 46.8948 36.1907 45.2707 38.1079 43.8841C39.4439 42.9189 40.9865 42.0585 42.6658 41.4475C42.8387 41.3844 43.0125 41.3244 43.1872 41.2667C44.4821 40.4361 45.9508 39.811 47.0066 39.5587C47.358 39.4732 47.6682 39.4444 47.9588 39.4463C48.302 39.4584 48.5998 39.5314 48.8702 39.5991C49.1744 39.6771 49.4332 39.7489 49.695 39.717C49.8362 39.6998 50.0243 39.6676 50.2471 39.6303C51.1736 39.4747 52.7017 39.2442 54.0665 39.5193C54.6696 39.6408 55.3711 39.8977 56.0356 40.1431C56.9806 40.4945 57.8548 40.8206 58.2868 40.698C59.0415 40.4832 59.9142 40.612 60.6808 40.7197C61.4116 40.8228 62.0493 40.906 62.3914 40.6655C62.8015 40.3778 63.1656 40.4615 63.7112 40.5795C64.0895 40.661 64.5521 40.7589 65.1676 40.7542C65.8757 40.7484 66.3841 40.8735 66.8239 40.9756C67.435 41.119 67.9096 41.2187 68.497 40.812C69.1558 40.3585 69.8062 40.0043 70.3723 39.9758C70.6289 39.9636 70.9017 39.8806 71.1794 39.7883C71.5408 39.6681 71.9132 39.5301 72.2763 39.5264C72.5839 39.5204 72.8842 39.6742 73.1699 39.7972C73.2581 39.8359 73.3428 39.872 73.4223 39.9009C73.626 39.8047 73.8234 39.7017 74.0072 39.5933C74.0178 39.5407 74.027 39.4836 74.0359 39.4248C74.0791 39.1301 74.115 38.7707 74.2136 38.5262C74.3736 38.1351 74.6325 38.0936 74.914 38.0116C74.9708 37.9954 75.0271 37.9782 75.0807 37.9577C75.2637 37.8585 75.4398 37.715 75.5433 37.4884C75.6393 37.2785 75.6774 36.993 75.6973 36.7078C75.7289 36.2827 75.7192 35.8614 75.8953 35.6164C75.9618 35.5239 76.1416 35.4801 76.3216 35.4281C76.3227 35.4279 76.3237 35.4277 76.3248 35.4276C76.337 35.4241 76.3489 35.4204 76.3611 35.417C76.4377 34.6684 76.4203 33.8831 76.3222 33.0968C76.2848 33.0272 76.2475 32.957 76.2102 32.8876C76.0281 32.5503 75.8358 32.2321 75.5604 32.0343C75.3077 31.8529 75.1318 31.4397 74.9297 30.9776C74.8915 30.8729 74.8535 30.771 74.8147 30.6672C74.6472 30.2207 74.4682 29.8005 74.2566 29.5156C74.133 29.3482 74.2673 29.163 74.4022 28.9731C74.5284 28.7978 74.6547 28.619 74.5796 28.4945C74.542 28.4326 74.4568 28.3838 74.3672 28.3427C74.2883 28.3062 74.206 28.276 74.1497 28.2434C74.0974 28.2126 74.1489 28.0944 74.2146 27.9679C74.2551 27.8893 74.3007 27.8063 74.3287 27.728C74.2114 27.6875 74.1095 27.6782 73.9607 27.6342C73.791 27.5109 73.6236 27.389 73.4571 27.2674C73.2411 27.2645 73.0115 27.3082 72.7674 27.4113C72.5921 27.4853 72.403 27.5926 72.2091 27.7018C71.9453 27.8506 71.6732 28.0048 71.4175 28.0921C71.2174 28.1599 71.0806 28.1344 71.0753 28.0247C71.0728 27.9735 71.0982 27.9047 71.121 27.8425C71.1471 27.7711 71.1701 27.7074 71.1456 27.6873C71.1278 27.6728 71.0766 27.6934 71.0145 27.7181C70.9154 27.7576 70.7872 27.8085 70.7176 27.7509C70.457 27.535 70.2071 27.2558 69.9715 26.9956C69.7094 26.7058 69.4632 26.4395 69.2323 26.2961C68.9737 26.1348 68.7741 25.7381 68.6146 25.3945C68.5028 25.1538 68.411 24.9394 68.3342 24.8308C68.2583 24.7233 68.1336 24.7757 68.1101 24.8754C68.0739 24.9909 68.222 25.1843 68.5705 25.0958C68.6379 25.0771 68.7651 24.8988 68.9109 24.6673C69.0161 24.5035 69.1333 24.3133 69.2571 24.1342C69.3333 24.1393 69.4155 24.1421 69.5029 24.1416C69.4202 24.1395 69.2983 24.1377 69.1528 24.1413C69.1498 24.1689 69.1467 24.1971 69.1437 24.2259C69.1437 24.2265 69.1436 24.2272 69.1436 24.2279C69.0645 24.8799 69.0777 25.7549 68.6489 25.3212C68.5366 25.2119 68.4199 24.9899 68.3116 24.7912C68.2056 24.596 68.106 24.4228 68.0213 24.4043C67.9241 24.3838 67.8615 24.54 67.7942 24.7117C67.6993 24.9527 67.6029 25.2226 67.3559 25.0872C67.3389 25.078 67.3205 25.0679 67.3014 25.058C67.1195 24.9642 66.8473 24.8294 66.4737 24.4993C65.8117 24.6361 65.1099 24.8081 64.3925 25.01C63.1959 25.347 61.9548 25.766 60.7377 26.2676C60.1452 26.5094 59.3085 26.382 58.3416 25.9093C57.3775 25.4326 56.3595 24.6573 55.5307 23.6648C54.701 22.6746 54.1316 21.5187 53.9794 20.3984C53.8265 19.2802 54.1126 18.3016 54.722 17.7007C55.7157 16.7235 56.7621 15.7913 57.8928 14.918C57.9443 14.8584 57.9969 14.7996 58.0502 14.7425C58.4472 14.3174 58.7378 13.755 59.0558 13.1905C59.1288 13.0609 59.2027 12.9313 59.2796 12.8037Z" fill="#FC6D30"/>
<path d="M33.7975 3.64332C34.5998 4.09575 34.6884 5.51924 34.6605 6.29979C34.6605 6.31409 34.6604 6.32838 34.6604 6.34268C34.6564 6.52773 34.6729 6.70124 34.6896 6.90455C34.7217 7.38666 34.7942 8.07029 34.3835 9.46944C34.3858 9.6047 34.3857 9.74023 34.3831 9.87595C34.3783 10.1423 34.3643 10.4098 34.34 10.679C33.9969 15.3493 30.7757 19.0332 28.3271 20.7241C28.3029 20.7552 28.2783 20.7869 28.2533 20.8188C27.7738 21.4362 27.1679 22.1499 26.6101 22.3695C25.8929 22.6578 25.3674 22.7735 24.9361 22.8529C22.9929 23.9312 21.1325 24.8654 19.4433 25.9708C18.9088 26.3204 18.3996 26.6794 17.9048 27.0645C17.4514 27.4173 17.0101 27.7836 16.5755 28.1651C16.5363 28.2313 16.4982 28.298 16.461 28.3649L17.3602 27.4238C17.3149 27.6865 17.2876 27.945 17.2641 28.1869C17.2231 28.6164 17.1865 29.0047 17.0858 29.2671C16.8371 29.9075 16.2399 30.4215 15.7989 30.8154C15.7265 30.8801 15.6584 30.9411 15.5969 30.9983C15.438 31.4231 15.2849 31.8596 15.1429 32.2916C15.0833 32.2919 15.0217 32.2914 14.9586 32.2907C14.1727 32.2816 13.9426 32.7034 13.5999 33.3668C13.451 33.6556 13.2792 33.9933 13.0342 34.3631C12.8761 34.6019 12.566 34.6138 12.3135 34.622C12.2392 34.6246 12.1697 34.6272 12.1105 34.6353C11.9079 34.663 12.017 34.8548 12.1472 35.08C12.3154 35.3739 12.5262 35.7103 12.1238 35.8505C10.8473 36.2895 11.2753 36.9589 11.6092 37.435C11.7071 37.5755 11.7958 37.7022 11.8296 37.8093C11.9398 38.1537 11.5764 38.4144 11.1675 38.5653C10.8431 38.6836 10.9066 39.2116 11.0837 39.6551C11.1514 39.8206 11.0919 39.9874 11.0224 40.1857C10.9523 40.3858 10.8681 40.6288 10.9123 40.9191C11.0205 41.6648 11.0791 42.0433 11.1249 42.3471C11.1388 42.4317 11.1505 42.5127 11.164 42.5937C11.2076 42.8463 11.2202 43.141 11.2386 43.4358C11.2617 43.783 11.2938 44.132 11.3922 44.3926C11.293 44.5741 11.1913 44.7625 11.0982 44.9153L11.158 44.5395C11.0187 44.6712 10.9069 44.5606 10.7461 44.4224C10.6227 44.3056 9.99095 44.3168 9.11365 44.7478C8.22878 45.1629 7.19204 45.9166 6.05992 46.5883C4.92956 47.2585 3.73158 47.7626 2.62831 47.7034C1.53258 47.6605 0.665399 47.0016 0.422213 46.1534C0.102338 45.0741 0.0104241 43.9854 5.72205e-06 43.1187C0.0263109 43.0596 0.0207987 42.8574 0.0507421 42.8001C0.0560622 42.4048 0.0714173 42.0278 0.0971799 41.657C0.182905 40.4175 0.376673 39.2693 0.738678 38.1709C0.991212 37.4068 1.28898 36.6682 1.62364 35.9499C1.65822 35.8756 1.69369 35.8012 1.72942 35.7263C1.66334 34.9969 1.64759 34.2582 1.73124 33.7911C1.80345 33.3975 2.07396 33.2104 2.30655 33.0495C2.46673 32.9386 2.60951 32.8397 2.65571 32.7019C2.68087 32.6271 2.70685 32.5208 2.73923 32.3917C2.87036 31.8649 3.10591 30.9725 3.75751 30.3775C4.04603 30.1135 4.48362 29.8643 4.90296 29.6321C5.50181 29.3007 6.06425 29.0031 6.0948 28.7225C6.15241 28.2214 6.55537 27.8332 6.91586 27.4939C7.25791 27.173 7.55889 26.8985 7.48668 26.5918C7.39743 26.2302 7.60733 26.0894 7.92047 25.8822C8.13809 25.738 8.39993 25.5697 8.65538 25.2669C8.94956 24.9189 9.27444 24.7562 9.55374 24.6145C9.94579 24.4173 10.2358 24.2794 10.2228 23.7552C10.2088 23.3031 10.2702 22.8802 10.45 22.5914C10.6564 22.4286 11.0722 21.7764 11.3179 21.683C11.3847 21.6252 11.4564 21.5801 11.5334 21.55C11.6954 21.4865 11.8383 21.3613 11.9848 21.2324C12.1758 21.0641 12.3877 20.8785 12.6586 20.8216C12.8823 20.7745 13.1718 20.8732 13.4274 20.961C13.5076 20.988 13.5858 21.0124 13.657 21.0321C13.7861 20.9272 13.9127 20.8221 14.0363 20.7157C14.0316 20.667 14.0253 20.6141 14.0189 20.5593C13.9873 20.2841 13.9455 19.9487 14.0331 19.6959C14.1704 19.2969 14.4861 19.2291 14.8399 19.1412C15.1125 19.075 15.3853 19.0146 15.5933 18.7901C15.7345 18.6374 15.8479 18.411 15.9559 18.1894C16.1232 17.8546 16.2833 17.5263 16.5172 17.4571C16.6078 17.4289 16.768 17.5044 16.9272 17.5797C16.9281 17.5803 16.9289 17.5808 16.9298 17.5813C16.9406 17.5864 16.9513 17.5913 16.962 17.5964C17.3127 17.1442 17.6445 16.6847 17.9656 16.2148C17.9739 16.1526 17.9827 16.0907 17.9913 16.0298C18.0303 15.7347 18.0743 15.4403 17.9976 15.1458C17.9133 14.8278 18.0884 14.4393 18.2431 14.0465C18.3533 13.7812 18.4455 13.5232 18.4818 13.2592C18.5008 13.107 18.6959 13.146 18.897 13.1852C19.0855 13.2208 19.2823 13.253 19.3352 13.1395C19.3617 13.0825 19.3558 12.9894 19.3476 12.8911C19.3419 12.803 19.3348 12.7105 19.3476 12.6349C19.3602 12.564 19.5125 12.5319 19.7093 12.4829C19.8308 12.4527 19.9666 12.4188 20.0921 12.3727C20.2188 12.0641 20.3195 11.7766 20.3999 11.5089C20.3148 11.3792 20.1873 11.2332 20.0084 11.0672C19.8802 10.9479 19.7205 10.8143 19.557 10.678C19.3342 10.4929 19.1017 10.3047 18.921 10.1472C18.7799 10.024 18.7317 9.96264 18.8057 9.99025C18.8402 10.0031 18.9005 10.0347 18.9551 10.0631C19.0177 10.0956 19.0735 10.1242 19.0758 10.1172C19.0773 10.1122 19.0383 10.0808 18.9908 10.0433C18.9151 9.98323 18.8166 9.9067 18.8224 9.88886C18.8442 9.82241 18.9119 9.7845 18.9734 9.75285C19.0417 9.71796 19.1022 9.68946 19.0825 9.64285C19.0602 9.59107 19.2459 9.62518 19.4349 9.64147C19.5665 9.65361 19.6988 9.65709 19.7574 9.64034C19.8148 9.62374 19.7228 9.56752 19.6304 9.52055C19.5197 9.4626 19.4095 9.41828 19.5743 9.40427C19.6078 9.4013 19.8076 9.41603 20.0582 9.42766C20.2357 9.43597 20.439 9.44261 20.6269 9.44182C20.6313 9.39247 20.6384 9.34018 20.6475 9.28343C20.6521 9.25803 20.6574 9.23219 20.6631 9.20585C20.636 9.2027 20.6084 9.19953 20.5802 9.19642C20.5796 9.19637 20.5789 9.19632 20.5783 9.19627C19.9419 9.116 19.0715 9.10763 19.5844 8.99009C19.7144 8.957 19.9561 8.91966 20.1733 8.88237C20.3865 8.84589 20.5768 8.80932 20.6144 8.77925C20.6569 8.74501 20.5211 8.72419 20.3735 8.7071C20.166 8.68128 19.9353 8.66731 20.1323 8.57371C20.1457 8.56724 20.1605 8.56017 20.1752 8.55286C20.3146 8.48317 20.5195 8.37638 20.9368 8.20119C21.0011 7.94289 21.0621 7.64923 21.1081 7.32457C21.1854 6.78391 21.2195 6.15669 21.1787 5.48784C21.1614 5.16312 21.5328 4.60503 22.2223 3.87935C22.9144 3.15523 23.865 2.33007 24.9399 1.61186C26.0147 0.894556 27.1497 0.341931 28.1575 0.114686C29.1622 -0.114948 29.9482 0.00888562 30.3346 0.413594C30.961 1.07153 31.5686 1.79701 32.1208 2.61217C32.1643 2.64892 32.207 2.6865 32.2482 2.72517C32.5535 3.01026 33.0171 3.22553 33.4803 3.46937C33.5868 3.52571 33.6934 3.58342 33.7975 3.64332Z" fill="#FC6D30"/>
<path d="M99.6213 79.7384C99.1768 80.3578 98.2823 80.1281 97.7618 80.0135C97.7524 80.0116 97.743 80.0097 97.7336 80.0079C97.6118 79.9803 97.4953 79.9772 97.3569 79.9748C97.0403 79.9691 96.6023 79.9598 95.6411 79.6336C95.3701 79.668 95.0944 79.6976 94.8237 79.72C92.1213 79.9448 89.3097 79.8613 86.43 79.7293C86.2371 79.7035 86.0489 79.6804 85.8573 79.6615C85.8325 79.6696 85.8073 79.678 85.782 79.6864C85.2884 79.8485 84.7237 80.0953 84.2578 80.0228C83.6647 79.9284 83.1937 79.8435 82.7929 79.773C80.8268 80.1222 78.5531 81.0714 76.4074 82.3144C75.7287 82.7083 75.0696 83.1268 74.4158 83.5811C73.8112 84.0012 73.2244 84.4341 72.6375 84.8868C72.3602 85.2436 72.1167 85.6073 71.8858 85.9474C71.5694 86.4197 71.2737 86.8482 70.9852 87.1194C70.3394 87.7236 69.4408 88.1186 68.697 88.424C68.6085 88.4644 68.5221 88.5028 68.4383 88.5395C68.285 88.6066 68.1401 88.6678 68.0069 88.7243C67.3761 89.2192 66.7226 89.6852 66.0504 90.1187C65.98 90.0959 65.9086 90.071 65.8361 90.0449C64.9338 89.7154 64.2256 90.0514 63.0555 90.4816C62.5476 90.6667 61.9539 90.8652 61.24 91.01C60.7792 91.1027 60.4812 90.8939 60.2434 90.7231C60.1733 90.6728 60.108 90.6255 60.0451 90.5895C59.8296 90.4663 59.6859 90.6861 59.5079 90.9447C59.2791 91.2794 58.985 91.6819 58.4687 91.4635C56.8503 90.755 56.3365 91.4469 55.8819 91.9937C55.7517 92.1522 55.6319 92.2949 55.5035 92.3788C55.0861 92.6518 54.4431 92.4563 53.9697 92.1525C53.5922 91.9135 52.8783 92.1859 52.3214 92.5078C52.1122 92.6301 51.8258 92.6319 51.4929 92.629C51.1465 92.6259 50.7493 92.6174 50.3178 92.7357C49.2267 93.0328 48.6378 93.1495 48.168 93.2453C48.0334 93.2722 47.9084 93.2959 47.7837 93.3208C47.7618 93.3252 47.7395 93.3295 47.7171 93.3337C47.4173 93.3744 46.5913 93.046 46.2912 93.0076C45.7004 92.9048 44.9888 92.6748 44.4233 92.4716C43.6963 92.2093 43.2142 92.0505 42.8467 92.0232C42.8006 91.9842 42.7558 91.946 42.7115 91.9081C42.0926 91.3878 41.1105 90.6502 40.2747 89.9255C39.8016 89.5202 39.6208 88.7072 39.8038 87.6654C39.9862 86.6222 40.5091 85.4418 41.2379 84.3447C41.9681 83.2479 42.8478 82.3074 43.672 81.6793C44.498 81.0534 45.1946 80.7928 45.653 80.9448C46.4973 81.2333 47.2638 81.4263 48.3224 81.8286C48.4419 81.8752 48.5588 81.9215 48.6721 81.9668C49.1105 82.1424 49.4953 82.3018 49.7459 82.3812C50.0021 82.4639 50.1093 82.4649 50.2081 82.4712L48.7689 82.1421C49.1946 82.1481 49.6203 82.1628 50.0387 82.1889C50.8399 82.2391 51.63 82.2953 52.4141 82.3482C52.4947 82.3536 52.5758 82.3593 52.6561 82.3647C53.31 82.033 53.9267 81.7066 54.3554 81.5697C54.7094 81.457 54.9826 81.6045 55.222 81.7283C55.3864 81.8134 55.5333 81.8873 55.6688 81.8561C55.7415 81.8394 55.8396 81.8068 55.9564 81.7666C56.439 81.6033 57.2075 81.3061 57.9886 81.4421C58.3374 81.5032 58.7729 81.6738 59.1998 81.8203C59.808 82.032 60.4016 82.1893 60.5948 81.9975C60.9316 81.6634 61.437 81.6176 61.8913 81.551C62.3223 81.4896 62.7025 81.4112 62.7676 81.1185C62.8436 80.7694 63.0667 80.7584 63.4098 80.7213C63.4401 80.718 63.4714 80.7145 63.5035 80.7105C63.777 80.6465 64.0989 80.5596 64.4572 80.3734C64.9428 80.119 65.3546 80.0601 65.7133 80.0039C66.2201 79.9233 66.5886 79.8706 66.8447 79.3242C67.1168 78.7258 67.4899 78.2053 67.9383 78.0237C68.1445 77.9397 68.3375 77.7911 68.5397 77.6353C68.8152 77.4236 69.0901 77.2116 69.4332 77.1207C69.7144 77.0469 70.0409 77.1315 70.3321 77.2048C70.4239 77.227 70.5117 77.2482 70.5931 77.2639C70.7704 77.1369 70.9428 77.0116 71.116 76.8826C71.1219 76.8285 71.1267 76.7698 71.132 76.7089C71.1593 76.4032 71.1883 76.0314 71.3513 75.7445C71.6129 75.288 72.036 75.1727 72.4847 75.0532C72.8356 74.9592 73.1987 74.8646 73.5225 74.5983C73.7423 74.4174 73.954 74.1546 74.1718 73.8918C74.4908 73.5042 74.8209 73.1199 75.164 73.0234C75.2913 72.9879 75.4677 73.0689 75.6413 73.151C75.6422 73.1515 75.6432 73.1521 75.6441 73.1527C75.6558 73.1583 75.6675 73.1636 75.6793 73.1692C76.3238 72.6396 76.9937 72.1047 77.7111 71.5789C77.7601 71.5076 77.8089 71.4373 77.8607 71.3665C78.111 71.0219 78.3649 70.6916 78.4804 70.3419C78.6008 69.9644 79.1669 69.5237 79.8128 69.0881C80.2367 68.8013 80.6924 68.5175 81.0594 68.2339C81.2743 68.0678 81.5558 68.1577 81.8384 68.2567C82.1025 68.3491 82.3682 68.4486 82.6067 68.3493C82.7257 68.2996 82.8443 68.2014 82.9733 68.0976C83.0865 68.0062 83.2093 67.9099 83.3422 67.8401C83.4653 67.7754 83.7824 67.8037 84.1744 67.8543C84.3438 67.876 84.5288 67.9014 84.722 67.9244C84.7892 67.9368 84.8575 67.9484 84.9264 67.9586C85.4885 67.7737 86.0381 67.5972 86.6037 67.4284C86.7036 67.2685 86.7815 67.0681 86.8311 66.8176C86.8668 66.6379 86.8889 66.4258 86.9127 66.2089C86.947 65.9134 86.9828 65.608 87.0545 65.359C87.1106 65.1643 87.1954 65.0787 87.2683 65.1471C87.3023 65.179 87.3335 65.2433 87.3617 65.3014C87.3941 65.3681 87.4228 65.4273 87.448 65.4223C87.4662 65.4185 87.4789 65.3668 87.4947 65.3041C87.5199 65.204 87.5529 65.0746 87.6261 65.0609C87.8935 65.0104 88.2248 65.0091 88.5372 65.0107C88.8835 65.0126 89.2264 65.0148 89.4936 64.9468C89.7904 64.8708 90.2386 65.0061 90.6934 65.1427C91.0062 65.2384 91.3199 65.3344 91.588 65.3602C91.851 65.3855 92.0918 65.2594 92.3494 65.1351C92.6532 64.9865 92.934 64.8453 93.2047 64.9844C93.26 65.0127 93.3421 65.2065 93.4439 65.4491C93.516 65.6211 93.5984 65.8178 93.6878 65.9981C94.0056 65.9718 94.334 65.9543 94.6587 65.9458C94.6681 65.9179 94.6778 65.8895 94.6874 65.8605C94.6876 65.8598 94.6877 65.8592 94.6879 65.8585C94.8977 65.2048 95.2297 64.3079 95.7739 64.7957C95.9181 64.9194 96.0169 65.1582 96.1051 65.3731C96.1916 65.5842 96.2681 65.7733 96.366 65.8086C96.4787 65.8486 96.5926 65.7101 96.7328 65.559C96.9257 65.3472 97.1412 65.1113 97.3709 65.3126C97.3866 65.3263 97.4031 65.3415 97.4211 65.3565C97.5949 65.4994 97.8487 65.7117 98.098 66.1499C98.8202 66.2474 99.5414 66.3767 100.274 66.536C101.518 66.8059 102.738 67.1382 104.143 67.6303C104.825 67.872 105.496 68.638 105.78 69.76C106.094 70.8926 105.794 72.1902 105.112 73.285C104.433 74.3855 103.874 75.5071 103.549 76.425C103.207 77.3345 102.943 77.8909 102.618 77.9866C102.094 78.1406 101.409 78.3226 100.71 78.5148C100.673 78.5406 100.634 78.5656 100.596 78.589C100.325 78.7636 100.058 79.1247 99.8011 79.4889C99.7418 79.5726 99.6786 79.6566 99.6213 79.7384Z" fill="#FC6D30"/>
</svg>
