<svg width="36" height="36" viewBox="0 0 36 36" fill="none" xmlns="http://www.w3.org/2000/svg">
<path d="M17.88 14.25H20.88V9.75H25.38V6.75H20.88V2.25H17.88V6.75H13.38V9.75H17.88V14.25ZM11.88 27.75C10.23 27.75 8.89501 29.1 8.89501 30.75C8.89501 32.4 10.23 33.75 11.88 33.75C13.53 33.75 14.88 32.4 14.88 30.75C14.88 29.1 13.53 27.75 11.88 27.75ZM26.88 27.75C25.23 27.75 23.895 29.1 23.895 30.75C23.895 32.4 25.23 33.75 26.88 33.75C28.53 33.75 29.88 32.4 29.88 30.75C29.88 29.1 28.53 27.75 26.88 27.75ZM13.53 20.25H24.705C25.83 20.25 26.82 19.635 27.33 18.705L33.12 8.19L30.51 6.75L24.705 17.25H14.175L7.785 3.75H2.88V6.75H5.88L11.28 18.135L9.255 21.795C8.16 23.805 9.60001 26.25 11.88 26.25H29.88V23.25H11.88L13.53 20.25Z" fill="#341713"/>
</svg>
