<svg width="30" height="22" viewBox="0 0 30 22" fill="none" xmlns="http://www.w3.org/2000/svg">
<path d="M28.6 3.2381C28.2333 1.90476 27.3167 0.952381 26.0334 0.571429C23.8334 3.40598e-07 14.4833 0 14.4833 0C14.4833 0 5.31668 3.40598e-07 2.93334 0.571429C1.65001 0.952381 0.733328 1.90476 0.366661 3.2381C-5.60035e-06 5.71429 0 10.6667 0 10.6667C0 10.6667 5.57303e-06 15.619 0.550006 18.0952C0.916672 19.4286 1.83333 20.381 3.11666 20.7619C5.31666 21.3333 14.6667 21.3333 14.6667 21.3333C14.6667 21.3333 23.8333 21.3333 26.2166 20.7619C27.5 20.381 28.4167 19.4286 28.7834 18.0952C29.3334 15.619 29.3333 10.6667 29.3333 10.6667C29.3333 10.6667 29.3333 5.71429 28.6 3.2381ZM11.7333 15.2381V6.09524L19.4333 10.6667L11.7333 15.2381Z" fill="#F4ECE6"/>
</svg>
